<svg xmlns="http://www.w3.org/2000/svg" width="1500" height="1190" viewBox="0 0 1500 1190"><rect width="100%" height="100%" fill="white"/><g font-family="Arial,sans-serif"><text x="750.0" y="44" font-size="27" text-anchor="middle" fill="#163b50" font-weight="bold">Mockup · Reservas</text><path d="M35,75 L1465,75 L1465,155 L35,155 Z" fill="#163b50" stroke="#546778" stroke-width="2"/><text x="750.0" y="122.0" font-size="19" text-anchor="middle" fill="#ffffff" font-weight="bold">Hotel Duerme Bien · Sistema de pasajeros</text><rect x="35" y="185" width="240" height="65" rx="8" fill="#ffffff" stroke="#546778" stroke-width="1.3"/><text x="155.0" y="224.5" font-size="19" text-anchor="middle" fill="#253747" font-weight="normal">Acceso</text><rect x="35" y="269" width="240" height="65" rx="8" fill="#ffffff" stroke="#546778" stroke-width="1.3"/><text x="155.0" y="308.5" font-size="19" text-anchor="middle" fill="#253747" font-weight="normal">Disponibilidad</text><rect x="35" y="353" width="240" height="65" rx="8" fill="#ffffff" stroke="#546778" stroke-width="1.3"/><text x="155.0" y="392.5" font-size="19" text-anchor="middle" fill="#253747" font-weight="normal">Habitaciones</text><rect x="35" y="437" width="240" height="65" rx="8" fill="#ffffff" stroke="#546778" stroke-width="1.3"/><text x="155.0" y="476.5" font-size="19" text-anchor="middle" fill="#253747" font-weight="normal">Huéspedes</text><rect x="35" y="521" width="240" height="65" rx="8" fill="#d9eaf1" stroke="#546778" stroke-width="1.3"/><text x="155.0" y="560.5" font-size="19" text-anchor="middle" fill="#253747" font-weight="bold">Reservas</text><rect x="35" y="605" width="240" height="65" rx="8" fill="#ffffff" stroke="#546778" stroke-width="1.3"/><text x="155.0" y="644.5" font-size="19" text-anchor="middle" fill="#253747" font-weight="normal">Check-in</text><rect x="35" y="689" width="240" height="65" rx="8" fill="#ffffff" stroke="#546778" stroke-width="1.3"/><text x="155.0" y="728.5" font-size="19" text-anchor="middle" fill="#253747" font-weight="normal">Check-out</text><rect x="35" y="773" width="240" height="65" rx="8" fill="#ffffff" stroke="#546778" stroke-width="1.3"/><text x="155.0" y="812.5" font-size="19" text-anchor="middle" fill="#253747" font-weight="normal">Informes</text><rect x="35" y="857" width="240" height="65" rx="8" fill="#ffffff" stroke="#546778" stroke-width="1.3"/><text x="155.0" y="896.5" font-size="19" text-anchor="middle" fill="#253747" font-weight="normal">Usuarios</text><text x="319" y="213.5" font-size="17" text-anchor="start" fill="#253747" font-weight="normal">Reservas</text><text x="339" y="286.0" font-size="17" text-anchor="start" fill="#253747" font-weight="normal">Titular</text><rect x="335" y="300" width="535" height="50" rx="8" fill="#ffffff" stroke="#546778" stroke-width="1.3"/><text x="350" y="332.0" font-size="19" text-anchor="start" fill="#253747" font-weight="normal">Ana Ejemplo</text><text x="909" y="286.0" font-size="17" text-anchor="start" fill="#253747" font-weight="normal">Habitación</text><rect x="905" y="300" width="535" height="50" rx="8" fill="#ffffff" stroke="#546778" stroke-width="1.3"/><text x="920" y="332.0" font-size="19" text-anchor="start" fill="#253747" font-weight="normal">201 · Capacidad 2</text><text x="339" y="401.0" font-size="17" text-anchor="start" fill="#253747" font-weight="normal">Entrada</text><rect x="335" y="415" width="535" height="50" rx="8" fill="#ffffff" stroke="#546778" stroke-width="1.3"/><text x="350" y="447.0" font-size="19" text-anchor="start" fill="#253747" font-weight="normal">01/10/2026</text><text x="909" y="401.0" font-size="17" text-anchor="start" fill="#253747" font-weight="normal">Salida</text><rect x="905" y="415" width="535" height="50" rx="8" fill="#ffffff" stroke="#546778" stroke-width="1.3"/><text x="920" y="447.0" font-size="19" text-anchor="start" fill="#253747" font-weight="normal">03/10/2026</text><text x="339" y="516.0" font-size="17" text-anchor="start" fill="#253747" font-weight="normal">Cantidad de pasajeros</text><rect x="335" y="530" width="535" height="50" rx="8" fill="#ffffff" stroke="#546778" stroke-width="1.3"/><text x="350" y="562.0" font-size="19" text-anchor="start" fill="#253747" font-weight="normal">2</text><rect x="335" y="610" width="535" height="65" rx="8" fill="#163b50" stroke="#546778" stroke-width="1.3"/><text x="602.5" y="649.5" font-size="19" text-anchor="middle" fill="#ffffff" font-weight="bold">Guardar reserva</text><path d="M315.0,715 L477.8571428571429,715 L477.8571428571429,795 L315.0,795 Z" fill="#d9eaf1" stroke="#546778" stroke-width="2"/><text x="396.42857142857144" y="762.0" font-size="19" text-anchor="middle" fill="#253747" font-weight="bold">Reserva</text><path d="M477.8571428571429,715 L640.7142857142858,715 L640.7142857142858,795 L477.8571428571429,795 Z" fill="#d9eaf1" stroke="#546778" stroke-width="2"/><text x="559.2857142857143" y="762.0" font-size="19" text-anchor="middle" fill="#253747" font-weight="bold">Titular</text><path d="M640.7142857142858,715 L803.5714285714287,715 L803.5714285714287,795 L640.7142857142858,795 Z" fill="#d9eaf1" stroke="#546778" stroke-width="2"/><text x="722.1428571428572" y="762.0" font-size="19" text-anchor="middle" fill="#253747" font-weight="bold">Habitación</text><path d="M803.5714285714286,715 L966.4285714285714,715 L966.4285714285714,795 L803.5714285714286,795 Z" fill="#d9eaf1" stroke="#546778" stroke-width="2"/><text x="885.0" y="762.0" font-size="19" text-anchor="middle" fill="#253747" font-weight="bold">Fechas</text><path d="M966.4285714285714,715 L1129.2857142857142,715 L1129.2857142857142,795 L966.4285714285714,795 Z" fill="#d9eaf1" stroke="#546778" stroke-width="2"/><text x="1047.857142857143" y="762.0" font-size="19" text-anchor="middle" fill="#253747" font-weight="bold">Pasajeros</text><path d="M1129.2857142857142,715 L1292.142857142857,715 L1292.142857142857,795 L1129.2857142857142,795 Z" fill="#d9eaf1" stroke="#546778" stroke-width="2"/><text x="1210.7142857142856" y="762.0" font-size="19" text-anchor="middle" fill="#253747" font-weight="bold">Estado</text><path d="M1292.142857142857,715 L1455.0,715 L1455.0,795 L1292.142857142857,795 Z" fill="#d9eaf1" stroke="#546778" stroke-width="2"/><text x="1373.5714285714284" y="762.0" font-size="19" text-anchor="middle" fill="#253747" font-weight="bold">Acciones</text><path d="M315.0,795 L477.8571428571429,795 L477.8571428571429,875 L315.0,875 Z" fill="#ffffff" stroke="#546778" stroke-width="2"/><text x="396.42857142857144" y="842.0" font-size="19" text-anchor="middle" fill="#253747" font-weight="normal">#1</text><path d="M477.8571428571429,795 L640.7142857142858,795 L640.7142857142858,875 L477.8571428571429,875 Z" fill="#ffffff" stroke="#546778" stroke-width="2"/><text x="559.2857142857143" y="842.0" font-size="19" text-anchor="middle" fill="#253747" font-weight="normal">Ana Ejemplo</text><path d="M640.7142857142858,795 L803.5714285714287,795 L803.5714285714287,875 L640.7142857142858,875 Z" fill="#ffffff" stroke="#546778" stroke-width="2"/><text x="722.1428571428572" y="842.0" font-size="19" text-anchor="middle" fill="#253747" font-weight="normal">201</text><path d="M803.5714285714286,795 L966.4285714285714,795 L966.4285714285714,875 L803.5714285714286,875 Z" fill="#ffffff" stroke="#546778" stroke-width="2"/><text x="885.0" y="829.5" font-size="19" text-anchor="middle" fill="#253747" font-weight="normal">01/10/2026 –</text><text x="885.0" y="854.5" font-size="19" text-anchor="middle" fill="#253747" font-weight="normal">03/10/2026</text><path d="M966.4285714285714,795 L1129.2857142857142,795 L1129.2857142857142,875 L966.4285714285714,875 Z" fill="#ffffff" stroke="#546778" stroke-width="2"/><text x="1047.857142857143" y="842.0" font-size="19" text-anchor="middle" fill="#253747" font-weight="normal">2</text><path d="M1129.2857142857142,795 L1292.142857142857,795 L1292.142857142857,875 L1129.2857142857142,875 Z" fill="#ffffff" stroke="#546778" stroke-width="2"/><text x="1210.7142857142856" y="842.0" font-size="19" text-anchor="middle" fill="#253747" font-weight="normal">REGISTRADA</text><path d="M1292.142857142857,795 L1455.0,795 L1455.0,875 L1292.142857142857,875 Z" fill="#ffffff" stroke="#546778" stroke-width="2"/><text x="1373.5714285714284" y="829.5" font-size="19" text-anchor="middle" fill="#253747" font-weight="normal">Modificar /</text><text x="1373.5714285714284" y="854.5" font-size="19" text-anchor="middle" fill="#253747" font-weight="normal">Cancelar</text><text x="880" y="1145" font-size="16" text-anchor="middle" fill="#253747" font-weight="normal">Datos ficticios para el diseño. Las decisiones de permisos y cobro se detallan en el informe.</text></g></svg>