<svg xmlns="http://www.w3.org/2000/svg" width="4680" height="3750" viewBox="0 0 4680 3750"><g id="acceso" transform="translate(0,0)"><ns0:rect xmlns:ns0="http://www.w3.org/2000/svg" width="100%" height="100%" fill="white" /><ns0:g xmlns:ns0="http://www.w3.org/2000/svg" font-family="Arial,sans-serif"><ns0:text x="750.0" y="44" font-size="27" text-anchor="middle" fill="#163b50" font-weight="bold">Wireframe · Acceso</ns0:text><ns0:path d="M35,75 L1465,75 L1465,155 L35,155 Z" fill="#eef1f3" stroke="#546778" stroke-width="2" /><ns0:text x="750.0" y="122.0" font-size="19" text-anchor="middle" fill="#253747" font-weight="normal">Hotel Duerme Bien · Sistema de pasajeros</ns0:text><ns0:path d="M35,185 L275,185 L275,250 L35,250 Z" fill="#eef1f3" stroke="#546778" stroke-width="2" /><ns0:text x="155.0" y="224.5" font-size="19" text-anchor="middle" fill="#253747" font-weight="bold">Acceso</ns0:text><ns0:path d="M35,269 L275,269 L275,334 L35,334 Z" fill="#ffffff" stroke="#546778" stroke-width="2" /><ns0:text x="155.0" y="308.5" font-size="19" text-anchor="middle" fill="#253747" font-weight="normal">Disponibilidad</ns0:text><ns0:path d="M35,353 L275,353 L275,418 L35,418 Z" fill="#ffffff" stroke="#546778" stroke-width="2" /><ns0:text x="155.0" y="392.5" font-size="19" text-anchor="middle" fill="#253747" font-weight="normal">Habitaciones</ns0:text><ns0:path d="M35,437 L275,437 L275,502 L35,502 Z" fill="#ffffff" stroke="#546778" stroke-width="2" /><ns0:text x="155.0" y="476.5" font-size="19" text-anchor="middle" fill="#253747" font-weight="normal">Huéspedes</ns0:text><ns0:path d="M35,521 L275,521 L275,586 L35,586 Z" fill="#ffffff" stroke="#546778" stroke-width="2" /><ns0:text x="155.0" y="560.5" font-size="19" text-anchor="middle" fill="#253747" font-weight="normal">Reservas</ns0:text><ns0:path d="M35,605 L275,605 L275,670 L35,670 Z" fill="#ffffff" stroke="#546778" stroke-width="2" /><ns0:text x="155.0" y="644.5" font-size="19" text-anchor="middle" fill="#253747" font-weight="normal">Check-in</ns0:text><ns0:path d="M35,689 L275,689 L275,754 L35,754 Z" fill="#ffffff" stroke="#546778" stroke-width="2" /><ns0:text x="155.0" y="728.5" font-size="19" text-anchor="middle" fill="#253747" font-weight="normal">Check-out</ns0:text><ns0:path d="M35,773 L275,773 L275,838 L35,838 Z" fill="#ffffff" stroke="#546778" stroke-width="2" /><ns0:text x="155.0" y="812.5" font-size="19" text-anchor="middle" fill="#253747" font-weight="normal">Informes</ns0:text><ns0:path d="M35,857 L275,857 L275,922 L35,922 Z" fill="#ffffff" stroke="#546778" stroke-width="2" /><ns0:text x="155.0" y="896.5" font-size="19" text-anchor="middle" fill="#253747" font-weight="normal">Usuarios</ns0:text><ns0:path d="M315,175 L1455,175 L1455,240 L315,240 Z" fill="#eef1f3" stroke="#546778" stroke-width="2" /><ns0:text x="885.0" y="214.5" font-size="19" text-anchor="middle" fill="#253747" font-weight="bold">Acceso</ns0:text><ns0:path d="M335,265 L870,265 L870,355 L335,355 Z" fill="#ffffff" stroke="#546778" stroke-width="2" /><ns0:text x="602.5" y="304.5" font-size="19" text-anchor="middle" fill="#253747" font-weight="normal">Usuario de demostración</ns0:text><ns0:text x="602.5" y="329.5" font-size="19" text-anchor="middle" fill="#253747" font-weight="normal">[ campo / selección ]</ns0:text><ns0:path d="M905,265 L1440,265 L1440,355 L905,355 Z" fill="#ffffff" stroke="#546778" stroke-width="2" /><ns0:text x="1172.5" y="304.5" font-size="19" text-anchor="middle" fill="#253747" font-weight="normal">Perfil asignado</ns0:text><ns0:text x="1172.5" y="329.5" font-size="19" text-anchor="middle" fill="#253747" font-weight="normal">[ campo / selección ]</ns0:text><ns0:path d="M335,380 L870,380 L870,445 L335,445 Z" fill="#eef1f3" stroke="#546778" stroke-width="2" /><ns0:text x="602.5" y="419.5" font-size="19" text-anchor="middle" fill="#253747" font-weight="normal">Entrar</ns0:text><ns0:path d="M315,485 L1455,485 L1455,611 L315,611 Z" fill="#ffffff" stroke="#546778" stroke-width="2" /><ns0:path d="M315,529 L1455,529" fill="none" stroke="#546778" stroke-width="2" /><ns0:text x="885.0" y="515" font-size="20" text-anchor="middle" fill="#253747" font-weight="bold">Resultados / registros</ns0:text><ns0:text x="329" y="557" font-size="17" text-anchor="start" fill="#253747" font-weight="normal">Seleccionar un usuario activo.</ns0:text><ns0:text x="329" y="585" font-size="17" text-anchor="start" fill="#253747" font-weight="normal">[ registro / resultado ]</ns0:text><ns0:text x="880" y="1145" font-size="16" text-anchor="middle" fill="#253747" font-weight="normal">Datos ficticios para el diseño. Las decisiones de permisos y cobro se detallan en el informe.</ns0:text></ns0:g></g><g id="disponibilidad" transform="translate(1560,0)"><ns0:rect xmlns:ns0="http://www.w3.org/2000/svg" width="100%" height="100%" fill="white" /><ns0:g xmlns:ns0="http://www.w3.org/2000/svg" font-family="Arial,sans-serif"><ns0:text x="750.0" y="44" font-size="27" text-anchor="middle" fill="#163b50" font-weight="bold">Wireframe · Disponibilidad</ns0:text><ns0:path d="M35,75 L1465,75 L1465,155 L35,155 Z" fill="#eef1f3" stroke="#546778" stroke-width="2" /><ns0:text x="750.0" y="122.0" font-size="19" text-anchor="middle" fill="#253747" font-weight="normal">Hotel Duerme Bien · Sistema de pasajeros</ns0:text><ns0:path d="M35,185 L275,185 L275,250 L35,250 Z" fill="#ffffff" stroke="#546778" stroke-width="2" /><ns0:text x="155.0" y="224.5" font-size="19" text-anchor="middle" fill="#253747" font-weight="normal">Acceso</ns0:text><ns0:path d="M35,269 L275,269 L275,334 L35,334 Z" fill="#eef1f3" stroke="#546778" stroke-width="2" /><ns0:text x="155.0" y="308.5" font-size="19" text-anchor="middle" fill="#253747" font-weight="bold">Disponibilidad</ns0:text><ns0:path d="M35,353 L275,353 L275,418 L35,418 Z" fill="#ffffff" stroke="#546778" stroke-width="2" /><ns0:text x="155.0" y="392.5" font-size="19" text-anchor="middle" fill="#253747" font-weight="normal">Habitaciones</ns0:text><ns0:path d="M35,437 L275,437 L275,502 L35,502 Z" fill="#ffffff" stroke="#546778" stroke-width="2" /><ns0:text x="155.0" y="476.5" font-size="19" text-anchor="middle" fill="#253747" font-weight="normal">Huéspedes</ns0:text><ns0:path d="M35,521 L275,521 L275,586 L35,586 Z" fill="#ffffff" stroke="#546778" stroke-width="2" /><ns0:text x="155.0" y="560.5" font-size="19" text-anchor="middle" fill="#253747" font-weight="normal">Reservas</ns0:text><ns0:path d="M35,605 L275,605 L275,670 L35,670 Z" fill="#ffffff" stroke="#546778" stroke-width="2" /><ns0:text x="155.0" y="644.5" font-size="19" text-anchor="middle" fill="#253747" font-weight="normal">Check-in</ns0:text><ns0:path d="M35,689 L275,689 L275,754 L35,754 Z" fill="#ffffff" stroke="#546778" stroke-width="2" /><ns0:text x="155.0" y="728.5" font-size="19" text-anchor="middle" fill="#253747" font-weight="normal">Check-out</ns0:text><ns0:path d="M35,773 L275,773 L275,838 L35,838 Z" fill="#ffffff" stroke="#546778" stroke-width="2" /><ns0:text x="155.0" y="812.5" font-size="19" text-anchor="middle" fill="#253747" font-weight="normal">Informes</ns0:text><ns0:path d="M35,857 L275,857 L275,922 L35,922 Z" fill="#ffffff" stroke="#546778" stroke-width="2" /><ns0:text x="155.0" y="896.5" font-size="19" text-anchor="middle" fill="#253747" font-weight="normal">Usuarios</ns0:text><ns0:path d="M315,175 L1455,175 L1455,240 L315,240 Z" fill="#eef1f3" stroke="#546778" stroke-width="2" /><ns0:text x="885.0" y="214.5" font-size="19" text-anchor="middle" fill="#253747" font-weight="bold">Disponibilidad</ns0:text><ns0:path d="M335,265 L870,265 L870,355 L335,355 Z" fill="#ffffff" stroke="#546778" stroke-width="2" /><ns0:text x="602.5" y="304.5" font-size="19" text-anchor="middle" fill="#253747" font-weight="normal">Entrada</ns0:text><ns0:text x="602.5" y="329.5" font-size="19" text-anchor="middle" fill="#253747" font-weight="normal">[ campo / selección ]</ns0:text><ns0:path d="M905,265 L1440,265 L1440,355 L905,355 Z" fill="#ffffff" stroke="#546778" stroke-width="2" /><ns0:text x="1172.5" y="304.5" font-size="19" text-anchor="middle" fill="#253747" font-weight="normal">Salida</ns0:text><ns0:text x="1172.5" y="329.5" font-size="19" text-anchor="middle" fill="#253747" font-weight="normal">[ campo / selección ]</ns0:text><ns0:path d="M335,380 L870,380 L870,470 L335,470 Z" fill="#ffffff" stroke="#546778" stroke-width="2" /><ns0:text x="602.5" y="419.5" font-size="19" text-anchor="middle" fill="#253747" font-weight="normal">Cantidad de pasajeros</ns0:text><ns0:text x="602.5" y="444.5" font-size="19" text-anchor="middle" fill="#253747" font-weight="normal">[ campo / selección ]</ns0:text><ns0:path d="M335,495 L870,495 L870,560 L335,560 Z" fill="#eef1f3" stroke="#546778" stroke-width="2" /><ns0:text x="602.5" y="534.5" font-size="19" text-anchor="middle" fill="#253747" font-weight="normal">Consultar disponibilidad</ns0:text><ns0:path d="M315,600 L1455,600 L1455,754 L315,754 Z" fill="#ffffff" stroke="#546778" stroke-width="2" /><ns0:path d="M315,644 L1455,644" fill="none" stroke="#546778" stroke-width="2" /><ns0:text x="885.0" y="630" font-size="20" text-anchor="middle" fill="#253747" font-weight="bold">Resultados / registros</ns0:text><ns0:text x="329" y="672" font-size="17" text-anchor="start" fill="#253747" font-weight="normal">Habitación | Capacidad | Orientación | Disponibilidad</ns0:text><ns0:text x="329" y="700" font-size="17" text-anchor="start" fill="#253747" font-weight="normal">[ registro / resultado ]</ns0:text><ns0:text x="329" y="728" font-size="17" text-anchor="start" fill="#253747" font-weight="normal">[ registro / resultado ]</ns0:text><ns0:text x="880" y="1145" font-size="16" text-anchor="middle" fill="#253747" font-weight="normal">Datos ficticios para el diseño. Las decisiones de permisos y cobro se detallan en el informe.</ns0:text></ns0:g></g><g id="habitaciones" transform="translate(3120,0)"><ns0:rect xmlns:ns0="http://www.w3.org/2000/svg" width="100%" height="100%" fill="white" /><ns0:g xmlns:ns0="http://www.w3.org/2000/svg" font-family="Arial,sans-serif"><ns0:text x="750.0" y="44" font-size="27" text-anchor="middle" fill="#163b50" font-weight="bold">Wireframe · Habitaciones</ns0:text><ns0:path d="M35,75 L1465,75 L1465,155 L35,155 Z" fill="#eef1f3" stroke="#546778" stroke-width="2" /><ns0:text x="750.0" y="122.0" font-size="19" text-anchor="middle" fill="#253747" font-weight="normal">Hotel Duerme Bien · Sistema de pasajeros</ns0:text><ns0:path d="M35,185 L275,185 L275,250 L35,250 Z" fill="#ffffff" stroke="#546778" stroke-width="2" /><ns0:text x="155.0" y="224.5" font-size="19" text-anchor="middle" fill="#253747" font-weight="normal">Acceso</ns0:text><ns0:path d="M35,269 L275,269 L275,334 L35,334 Z" fill="#ffffff" stroke="#546778" stroke-width="2" /><ns0:text x="155.0" y="308.5" font-size="19" text-anchor="middle" fill="#253747" font-weight="normal">Disponibilidad</ns0:text><ns0:path d="M35,353 L275,353 L275,418 L35,418 Z" fill="#eef1f3" stroke="#546778" stroke-width="2" /><ns0:text x="155.0" y="392.5" font-size="19" text-anchor="middle" fill="#253747" font-weight="bold">Habitaciones</ns0:text><ns0:path d="M35,437 L275,437 L275,502 L35,502 Z" fill="#ffffff" stroke="#546778" stroke-width="2" /><ns0:text x="155.0" y="476.5" font-size="19" text-anchor="middle" fill="#253747" font-weight="normal">Huéspedes</ns0:text><ns0:path d="M35,521 L275,521 L275,586 L35,586 Z" fill="#ffffff" stroke="#546778" stroke-width="2" /><ns0:text x="155.0" y="560.5" font-size="19" text-anchor="middle" fill="#253747" font-weight="normal">Reservas</ns0:text><ns0:path d="M35,605 L275,605 L275,670 L35,670 Z" fill="#ffffff" stroke="#546778" stroke-width="2" /><ns0:text x="155.0" y="644.5" font-size="19" text-anchor="middle" fill="#253747" font-weight="normal">Check-in</ns0:text><ns0:path d="M35,689 L275,689 L275,754 L35,754 Z" fill="#ffffff" stroke="#546778" stroke-width="2" /><ns0:text x="155.0" y="728.5" font-size="19" text-anchor="middle" fill="#253747" font-weight="normal">Check-out</ns0:text><ns0:path d="M35,773 L275,773 L275,838 L35,838 Z" fill="#ffffff" stroke="#546778" stroke-width="2" /><ns0:text x="155.0" y="812.5" font-size="19" text-anchor="middle" fill="#253747" font-weight="normal">Informes</ns0:text><ns0:path d="M35,857 L275,857 L275,922 L35,922 Z" fill="#ffffff" stroke="#546778" stroke-width="2" /><ns0:text x="155.0" y="896.5" font-size="19" text-anchor="middle" fill="#253747" font-weight="normal">Usuarios</ns0:text><ns0:path d="M315,175 L1455,175 L1455,240 L315,240 Z" fill="#eef1f3" stroke="#546778" stroke-width="2" /><ns0:text x="885.0" y="214.5" font-size="19" text-anchor="middle" fill="#253747" font-weight="bold">Habitaciones</ns0:text><ns0:path d="M335,265 L870,265 L870,355 L335,355 Z" fill="#ffffff" stroke="#546778" stroke-width="2" /><ns0:text x="602.5" y="304.5" font-size="19" text-anchor="middle" fill="#253747" font-weight="normal">Número</ns0:text><ns0:text x="602.5" y="329.5" font-size="19" text-anchor="middle" fill="#253747" font-weight="normal">[ campo / selección ]</ns0:text><ns0:path d="M905,265 L1440,265 L1440,355 L905,355 Z" fill="#ffffff" stroke="#546778" stroke-width="2" /><ns0:text x="1172.5" y="304.5" font-size="19" text-anchor="middle" fill="#253747" font-weight="normal">Capacidad</ns0:text><ns0:text x="1172.5" y="329.5" font-size="19" text-anchor="middle" fill="#253747" font-weight="normal">[ campo / selección ]</ns0:text><ns0:path d="M335,380 L870,380 L870,470 L335,470 Z" fill="#ffffff" stroke="#546778" stroke-width="2" /><ns0:text x="602.5" y="419.5" font-size="19" text-anchor="middle" fill="#253747" font-weight="normal">Orientación</ns0:text><ns0:text x="602.5" y="444.5" font-size="19" text-anchor="middle" fill="#253747" font-weight="normal">[ campo / selección ]</ns0:text><ns0:path d="M335,495 L870,495 L870,560 L335,560 Z" fill="#eef1f3" stroke="#546778" stroke-width="2" /><ns0:text x="602.5" y="534.5" font-size="19" text-anchor="middle" fill="#253747" font-weight="normal">Guardar habitación</ns0:text><ns0:path d="M315,600 L1455,600 L1455,754 L315,754 Z" fill="#ffffff" stroke="#546778" stroke-width="2" /><ns0:path d="M315,644 L1455,644" fill="none" stroke="#546778" stroke-width="2" /><ns0:text x="885.0" y="630" font-size="20" text-anchor="middle" fill="#253747" font-weight="bold">Resultados / registros</ns0:text><ns0:text x="329" y="672" font-size="17" text-anchor="start" fill="#253747" font-weight="normal">Número | Capacidad | Orientación | Estado actual | Acción</ns0:text><ns0:text x="329" y="700" font-size="17" text-anchor="start" fill="#253747" font-weight="normal">[ registro / resultado ]</ns0:text><ns0:text x="329" y="728" font-size="17" text-anchor="start" fill="#253747" font-weight="normal">[ registro / resultado ]</ns0:text><ns0:text x="880" y="1145" font-size="16" text-anchor="middle" fill="#253747" font-weight="normal">Datos ficticios para el diseño. Las decisiones de permisos y cobro se detallan en el informe.</ns0:text></ns0:g></g><g id="huespedes" transform="translate(0,1250)"><ns0:rect xmlns:ns0="http://www.w3.org/2000/svg" width="100%" height="100%" fill="white" /><ns0:g xmlns:ns0="http://www.w3.org/2000/svg" font-family="Arial,sans-serif"><ns0:text x="750.0" y="44" font-size="27" text-anchor="middle" fill="#163b50" font-weight="bold">Wireframe · Huéspedes</ns0:text><ns0:path d="M35,75 L1465,75 L1465,155 L35,155 Z" fill="#eef1f3" stroke="#546778" stroke-width="2" /><ns0:text x="750.0" y="122.0" font-size="19" text-anchor="middle" fill="#253747" font-weight="normal">Hotel Duerme Bien · Sistema de pasajeros</ns0:text><ns0:path d="M35,185 L275,185 L275,250 L35,250 Z" fill="#ffffff" stroke="#546778" stroke-width="2" /><ns0:text x="155.0" y="224.5" font-size="19" text-anchor="middle" fill="#253747" font-weight="normal">Acceso</ns0:text><ns0:path d="M35,269 L275,269 L275,334 L35,334 Z" fill="#ffffff" stroke="#546778" stroke-width="2" /><ns0:text x="155.0" y="308.5" font-size="19" text-anchor="middle" fill="#253747" font-weight="normal">Disponibilidad</ns0:text><ns0:path d="M35,353 L275,353 L275,418 L35,418 Z" fill="#ffffff" stroke="#546778" stroke-width="2" /><ns0:text x="155.0" y="392.5" font-size="19" text-anchor="middle" fill="#253747" font-weight="normal">Habitaciones</ns0:text><ns0:path d="M35,437 L275,437 L275,502 L35,502 Z" fill="#eef1f3" stroke="#546778" stroke-width="2" /><ns0:text x="155.0" y="476.5" font-size="19" text-anchor="middle" fill="#253747" font-weight="bold">Huéspedes</ns0:text><ns0:path d="M35,521 L275,521 L275,586 L35,586 Z" fill="#ffffff" stroke="#546778" stroke-width="2" /><ns0:text x="155.0" y="560.5" font-size="19" text-anchor="middle" fill="#253747" font-weight="normal">Reservas</ns0:text><ns0:path d="M35,605 L275,605 L275,670 L35,670 Z" fill="#ffffff" stroke="#546778" stroke-width="2" /><ns0:text x="155.0" y="644.5" font-size="19" text-anchor="middle" fill="#253747" font-weight="normal">Check-in</ns0:text><ns0:path d="M35,689 L275,689 L275,754 L35,754 Z" fill="#ffffff" stroke="#546778" stroke-width="2" /><ns0:text x="155.0" y="728.5" font-size="19" text-anchor="middle" fill="#253747" font-weight="normal">Check-out</ns0:text><ns0:path d="M35,773 L275,773 L275,838 L35,838 Z" fill="#ffffff" stroke="#546778" stroke-width="2" /><ns0:text x="155.0" y="812.5" font-size="19" text-anchor="middle" fill="#253747" font-weight="normal">Informes</ns0:text><ns0:path d="M35,857 L275,857 L275,922 L35,922 Z" fill="#ffffff" stroke="#546778" stroke-width="2" /><ns0:text x="155.0" y="896.5" font-size="19" text-anchor="middle" fill="#253747" font-weight="normal">Usuarios</ns0:text><ns0:path d="M315,175 L1455,175 L1455,240 L315,240 Z" fill="#eef1f3" stroke="#546778" stroke-width="2" /><ns0:text x="885.0" y="214.5" font-size="19" text-anchor="middle" fill="#253747" font-weight="bold">Huéspedes</ns0:text><ns0:path d="M335,265 L870,265 L870,355 L335,355 Z" fill="#ffffff" stroke="#546778" stroke-width="2" /><ns0:text x="602.5" y="304.5" font-size="19" text-anchor="middle" fill="#253747" font-weight="normal">Identificación</ns0:text><ns0:text x="602.5" y="329.5" font-size="19" text-anchor="middle" fill="#253747" font-weight="normal">[ campo / selección ]</ns0:text><ns0:path d="M905,265 L1440,265 L1440,355 L905,355 Z" fill="#ffffff" stroke="#546778" stroke-width="2" /><ns0:text x="1172.5" y="304.5" font-size="19" text-anchor="middle" fill="#253747" font-weight="normal">Nombres</ns0:text><ns0:text x="1172.5" y="329.5" font-size="19" text-anchor="middle" fill="#253747" font-weight="normal">[ campo / selección ]</ns0:text><ns0:path d="M335,380 L870,380 L870,470 L335,470 Z" fill="#ffffff" stroke="#546778" stroke-width="2" /><ns0:text x="602.5" y="419.5" font-size="19" text-anchor="middle" fill="#253747" font-weight="normal">Apellidos</ns0:text><ns0:text x="602.5" y="444.5" font-size="19" text-anchor="middle" fill="#253747" font-weight="normal">[ campo / selección ]</ns0:text><ns0:path d="M335,495 L870,495 L870,560 L335,560 Z" fill="#eef1f3" stroke="#546778" stroke-width="2" /><ns0:text x="602.5" y="534.5" font-size="19" text-anchor="middle" fill="#253747" font-weight="normal">Guardar huésped</ns0:text><ns0:path d="M315,600 L1455,600 L1455,754 L315,754 Z" fill="#ffffff" stroke="#546778" stroke-width="2" /><ns0:path d="M315,644 L1455,644" fill="none" stroke="#546778" stroke-width="2" /><ns0:text x="885.0" y="630" font-size="20" text-anchor="middle" fill="#253747" font-weight="bold">Resultados / registros</ns0:text><ns0:text x="329" y="672" font-size="17" text-anchor="start" fill="#253747" font-weight="normal">Identificación | Nombres | Apellidos</ns0:text><ns0:text x="329" y="700" font-size="17" text-anchor="start" fill="#253747" font-weight="normal">[ registro / resultado ]</ns0:text><ns0:text x="329" y="728" font-size="17" text-anchor="start" fill="#253747" font-weight="normal">[ registro / resultado ]</ns0:text><ns0:text x="880" y="1145" font-size="16" text-anchor="middle" fill="#253747" font-weight="normal">Datos ficticios para el diseño. Las decisiones de permisos y cobro se detallan en el informe.</ns0:text></ns0:g></g><g id="reservas" transform="translate(1560,1250)"><ns0:rect xmlns:ns0="http://www.w3.org/2000/svg" width="100%" height="100%" fill="white" /><ns0:g xmlns:ns0="http://www.w3.org/2000/svg" font-family="Arial,sans-serif"><ns0:text x="750.0" y="44" font-size="27" text-anchor="middle" fill="#163b50" font-weight="bold">Wireframe · Reservas</ns0:text><ns0:path d="M35,75 L1465,75 L1465,155 L35,155 Z" fill="#eef1f3" stroke="#546778" stroke-width="2" /><ns0:text x="750.0" y="122.0" font-size="19" text-anchor="middle" fill="#253747" font-weight="normal">Hotel Duerme Bien · Sistema de pasajeros</ns0:text><ns0:path d="M35,185 L275,185 L275,250 L35,250 Z" fill="#ffffff" stroke="#546778" stroke-width="2" /><ns0:text x="155.0" y="224.5" font-size="19" text-anchor="middle" fill="#253747" font-weight="normal">Acceso</ns0:text><ns0:path d="M35,269 L275,269 L275,334 L35,334 Z" fill="#ffffff" stroke="#546778" stroke-width="2" /><ns0:text x="155.0" y="308.5" font-size="19" text-anchor="middle" fill="#253747" font-weight="normal">Disponibilidad</ns0:text><ns0:path d="M35,353 L275,353 L275,418 L35,418 Z" fill="#ffffff" stroke="#546778" stroke-width="2" /><ns0:text x="155.0" y="392.5" font-size="19" text-anchor="middle" fill="#253747" font-weight="normal">Habitaciones</ns0:text><ns0:path d="M35,437 L275,437 L275,502 L35,502 Z" fill="#ffffff" stroke="#546778" stroke-width="2" /><ns0:text x="155.0" y="476.5" font-size="19" text-anchor="middle" fill="#253747" font-weight="normal">Huéspedes</ns0:text><ns0:path d="M35,521 L275,521 L275,586 L35,586 Z" fill="#eef1f3" stroke="#546778" stroke-width="2" /><ns0:text x="155.0" y="560.5" font-size="19" text-anchor="middle" fill="#253747" font-weight="bold">Reservas</ns0:text><ns0:path d="M35,605 L275,605 L275,670 L35,670 Z" fill="#ffffff" stroke="#546778" stroke-width="2" /><ns0:text x="155.0" y="644.5" font-size="19" text-anchor="middle" fill="#253747" font-weight="normal">Check-in</ns0:text><ns0:path d="M35,689 L275,689 L275,754 L35,754 Z" fill="#ffffff" stroke="#546778" stroke-width="2" /><ns0:text x="155.0" y="728.5" font-size="19" text-anchor="middle" fill="#253747" font-weight="normal">Check-out</ns0:text><ns0:path d="M35,773 L275,773 L275,838 L35,838 Z" fill="#ffffff" stroke="#546778" stroke-width="2" /><ns0:text x="155.0" y="812.5" font-size="19" text-anchor="middle" fill="#253747" font-weight="normal">Informes</ns0:text><ns0:path d="M35,857 L275,857 L275,922 L35,922 Z" fill="#ffffff" stroke="#546778" stroke-width="2" /><ns0:text x="155.0" y="896.5" font-size="19" text-anchor="middle" fill="#253747" font-weight="normal">Usuarios</ns0:text><ns0:path d="M315,175 L1455,175 L1455,240 L315,240 Z" fill="#eef1f3" stroke="#546778" stroke-width="2" /><ns0:text x="885.0" y="214.5" font-size="19" text-anchor="middle" fill="#253747" font-weight="bold">Reservas</ns0:text><ns0:path d="M335,265 L870,265 L870,355 L335,355 Z" fill="#ffffff" stroke="#546778" stroke-width="2" /><ns0:text x="602.5" y="304.5" font-size="19" text-anchor="middle" fill="#253747" font-weight="normal">Titular</ns0:text><ns0:text x="602.5" y="329.5" font-size="19" text-anchor="middle" fill="#253747" font-weight="normal">[ campo / selección ]</ns0:text><ns0:path d="M905,265 L1440,265 L1440,355 L905,355 Z" fill="#ffffff" stroke="#546778" stroke-width="2" /><ns0:text x="1172.5" y="304.5" font-size="19" text-anchor="middle" fill="#253747" font-weight="normal">Habitación</ns0:text><ns0:text x="1172.5" y="329.5" font-size="19" text-anchor="middle" fill="#253747" font-weight="normal">[ campo / selección ]</ns0:text><ns0:path d="M335,380 L870,380 L870,470 L335,470 Z" fill="#ffffff" stroke="#546778" stroke-width="2" /><ns0:text x="602.5" y="419.5" font-size="19" text-anchor="middle" fill="#253747" font-weight="normal">Entrada</ns0:text><ns0:text x="602.5" y="444.5" font-size="19" text-anchor="middle" fill="#253747" font-weight="normal">[ campo / selección ]</ns0:text><ns0:path d="M905,380 L1440,380 L1440,470 L905,470 Z" fill="#ffffff" stroke="#546778" stroke-width="2" /><ns0:text x="1172.5" y="419.5" font-size="19" text-anchor="middle" fill="#253747" font-weight="normal">Salida</ns0:text><ns0:text x="1172.5" y="444.5" font-size="19" text-anchor="middle" fill="#253747" font-weight="normal">[ campo / selección ]</ns0:text><ns0:path d="M335,495 L870,495 L870,585 L335,585 Z" fill="#ffffff" stroke="#546778" stroke-width="2" /><ns0:text x="602.5" y="534.5" font-size="19" text-anchor="middle" fill="#253747" font-weight="normal">Cantidad de pasajeros</ns0:text><ns0:text x="602.5" y="559.5" font-size="19" text-anchor="middle" fill="#253747" font-weight="normal">[ campo / selección ]</ns0:text><ns0:path d="M335,610 L870,610 L870,675 L335,675 Z" fill="#eef1f3" stroke="#546778" stroke-width="2" /><ns0:text x="602.5" y="649.5" font-size="19" text-anchor="middle" fill="#253747" font-weight="normal">Guardar reserva</ns0:text><ns0:path d="M315,715 L1455,715 L1455,841 L315,841 Z" fill="#ffffff" stroke="#546778" stroke-width="2" /><ns0:path d="M315,759 L1455,759" fill="none" stroke="#546778" stroke-width="2" /><ns0:text x="885.0" y="745" font-size="20" text-anchor="middle" fill="#253747" font-weight="bold">Resultados / registros</ns0:text><ns0:text x="329" y="787" font-size="17" text-anchor="start" fill="#253747" font-weight="normal">Reserva | Titular | Habitación | Fechas | Pasajeros | Estado | Acciones</ns0:text><ns0:text x="329" y="815" font-size="17" text-anchor="start" fill="#253747" font-weight="normal">[ registro / resultado ]</ns0:text><ns0:text x="880" y="1145" font-size="16" text-anchor="middle" fill="#253747" font-weight="normal">Datos ficticios para el diseño. Las decisiones de permisos y cobro se detallan en el informe.</ns0:text></ns0:g></g><g id="checkin" transform="translate(3120,1250)"><ns0:rect xmlns:ns0="http://www.w3.org/2000/svg" width="100%" height="100%" fill="white" /><ns0:g xmlns:ns0="http://www.w3.org/2000/svg" font-family="Arial,sans-serif"><ns0:text x="750.0" y="44" font-size="27" text-anchor="middle" fill="#163b50" font-weight="bold">Wireframe · Check-in</ns0:text><ns0:path d="M35,75 L1465,75 L1465,155 L35,155 Z" fill="#eef1f3" stroke="#546778" stroke-width="2" /><ns0:text x="750.0" y="122.0" font-size="19" text-anchor="middle" fill="#253747" font-weight="normal">Hotel Duerme Bien · Sistema de pasajeros</ns0:text><ns0:path d="M35,185 L275,185 L275,250 L35,250 Z" fill="#ffffff" stroke="#546778" stroke-width="2" /><ns0:text x="155.0" y="224.5" font-size="19" text-anchor="middle" fill="#253747" font-weight="normal">Acceso</ns0:text><ns0:path d="M35,269 L275,269 L275,334 L35,334 Z" fill="#ffffff" stroke="#546778" stroke-width="2" /><ns0:text x="155.0" y="308.5" font-size="19" text-anchor="middle" fill="#253747" font-weight="normal">Disponibilidad</ns0:text><ns0:path d="M35,353 L275,353 L275,418 L35,418 Z" fill="#ffffff" stroke="#546778" stroke-width="2" /><ns0:text x="155.0" y="392.5" font-size="19" text-anchor="middle" fill="#253747" font-weight="normal">Habitaciones</ns0:text><ns0:path d="M35,437 L275,437 L275,502 L35,502 Z" fill="#ffffff" stroke="#546778" stroke-width="2" /><ns0:text x="155.0" y="476.5" font-size="19" text-anchor="middle" fill="#253747" font-weight="normal">Huéspedes</ns0:text><ns0:path d="M35,521 L275,521 L275,586 L35,586 Z" fill="#ffffff" stroke="#546778" stroke-width="2" /><ns0:text x="155.0" y="560.5" font-size="19" text-anchor="middle" fill="#253747" font-weight="normal">Reservas</ns0:text><ns0:path d="M35,605 L275,605 L275,670 L35,670 Z" fill="#eef1f3" stroke="#546778" stroke-width="2" /><ns0:text x="155.0" y="644.5" font-size="19" text-anchor="middle" fill="#253747" font-weight="bold">Check-in</ns0:text><ns0:path d="M35,689 L275,689 L275,754 L35,754 Z" fill="#ffffff" stroke="#546778" stroke-width="2" /><ns0:text x="155.0" y="728.5" font-size="19" text-anchor="middle" fill="#253747" font-weight="normal">Check-out</ns0:text><ns0:path d="M35,773 L275,773 L275,838 L35,838 Z" fill="#ffffff" stroke="#546778" stroke-width="2" /><ns0:text x="155.0" y="812.5" font-size="19" text-anchor="middle" fill="#253747" font-weight="normal">Informes</ns0:text><ns0:path d="M35,857 L275,857 L275,922 L35,922 Z" fill="#ffffff" stroke="#546778" stroke-width="2" /><ns0:text x="155.0" y="896.5" font-size="19" text-anchor="middle" fill="#253747" font-weight="normal">Usuarios</ns0:text><ns0:path d="M315,175 L1455,175 L1455,240 L315,240 Z" fill="#eef1f3" stroke="#546778" stroke-width="2" /><ns0:text x="885.0" y="214.5" font-size="19" text-anchor="middle" fill="#253747" font-weight="bold">Check-in</ns0:text><ns0:path d="M335,265 L870,265 L870,355 L335,355 Z" fill="#ffffff" stroke="#546778" stroke-width="2" /><ns0:text x="602.5" y="304.5" font-size="19" text-anchor="middle" fill="#253747" font-weight="normal">Origen</ns0:text><ns0:text x="602.5" y="329.5" font-size="19" text-anchor="middle" fill="#253747" font-weight="normal">[ campo / selección ]</ns0:text><ns0:path d="M905,265 L1440,265 L1440,355 L905,355 Z" fill="#ffffff" stroke="#546778" stroke-width="2" /><ns0:text x="1172.5" y="304.5" font-size="19" text-anchor="middle" fill="#253747" font-weight="normal">Habitación</ns0:text><ns0:text x="1172.5" y="329.5" font-size="19" text-anchor="middle" fill="#253747" font-weight="normal">[ campo / selección ]</ns0:text><ns0:path d="M335,380 L870,380 L870,470 L335,470 Z" fill="#ffffff" stroke="#546778" stroke-width="2" /><ns0:text x="602.5" y="419.5" font-size="19" text-anchor="middle" fill="#253747" font-weight="normal">Entrada</ns0:text><ns0:text x="602.5" y="444.5" font-size="19" text-anchor="middle" fill="#253747" font-weight="normal">[ campo / selección ]</ns0:text><ns0:path d="M905,380 L1440,380 L1440,470 L905,470 Z" fill="#ffffff" stroke="#546778" stroke-width="2" /><ns0:text x="1172.5" y="419.5" font-size="19" text-anchor="middle" fill="#253747" font-weight="normal">Salida prevista</ns0:text><ns0:text x="1172.5" y="444.5" font-size="19" text-anchor="middle" fill="#253747" font-weight="normal">[ campo / selección ]</ns0:text><ns0:path d="M335,495 L870,495 L870,585 L335,585 Z" fill="#ffffff" stroke="#546778" stroke-width="2" /><ns0:text x="602.5" y="534.5" font-size="19" text-anchor="middle" fill="#253747" font-weight="normal">Pasajeros identificados</ns0:text><ns0:text x="602.5" y="559.5" font-size="19" text-anchor="middle" fill="#253747" font-weight="normal">[ campo / selección ]</ns0:text><ns0:path d="M905,495 L1440,495 L1440,585 L905,585 Z" fill="#ffffff" stroke="#546778" stroke-width="2" /><ns0:text x="1172.5" y="534.5" font-size="19" text-anchor="middle" fill="#253747" font-weight="normal">Pasajeros identificados</ns0:text><ns0:text x="1172.5" y="559.5" font-size="19" text-anchor="middle" fill="#253747" font-weight="normal">[ campo / selección ]</ns0:text><ns0:path d="M335,610 L870,610 L870,675 L335,675 Z" fill="#eef1f3" stroke="#546778" stroke-width="2" /><ns0:text x="602.5" y="649.5" font-size="19" text-anchor="middle" fill="#253747" font-weight="normal">Confirmar check-in</ns0:text><ns0:path d="M315,715 L1455,715 L1455,841 L315,841 Z" fill="#ffffff" stroke="#546778" stroke-width="2" /><ns0:path d="M315,759 L1455,759" fill="none" stroke="#546778" stroke-width="2" /><ns0:text x="885.0" y="745" font-size="20" text-anchor="middle" fill="#253747" font-weight="bold">Resultados / registros</ns0:text><ns0:text x="329" y="787" font-size="17" text-anchor="start" fill="#253747" font-weight="normal">Estadía | Habitación | Pasajeros | Entrada | Salida prevista | Estado</ns0:text><ns0:text x="329" y="815" font-size="17" text-anchor="start" fill="#253747" font-weight="normal">[ registro / resultado ]</ns0:text><ns0:text x="880" y="1145" font-size="16" text-anchor="middle" fill="#253747" font-weight="normal">Datos ficticios para el diseño. Las decisiones de permisos y cobro se detallan en el informe.</ns0:text></ns0:g></g><g id="checkout" transform="translate(0,2500)"><ns0:rect xmlns:ns0="http://www.w3.org/2000/svg" width="100%" height="100%" fill="white" /><ns0:g xmlns:ns0="http://www.w3.org/2000/svg" font-family="Arial,sans-serif"><ns0:text x="750.0" y="44" font-size="27" text-anchor="middle" fill="#163b50" font-weight="bold">Wireframe · Check-out</ns0:text><ns0:path d="M35,75 L1465,75 L1465,155 L35,155 Z" fill="#eef1f3" stroke="#546778" stroke-width="2" /><ns0:text x="750.0" y="122.0" font-size="19" text-anchor="middle" fill="#253747" font-weight="normal">Hotel Duerme Bien · Sistema de pasajeros</ns0:text><ns0:path d="M35,185 L275,185 L275,250 L35,250 Z" fill="#ffffff" stroke="#546778" stroke-width="2" /><ns0:text x="155.0" y="224.5" font-size="19" text-anchor="middle" fill="#253747" font-weight="normal">Acceso</ns0:text><ns0:path d="M35,269 L275,269 L275,334 L35,334 Z" fill="#ffffff" stroke="#546778" stroke-width="2" /><ns0:text x="155.0" y="308.5" font-size="19" text-anchor="middle" fill="#253747" font-weight="normal">Disponibilidad</ns0:text><ns0:path d="M35,353 L275,353 L275,418 L35,418 Z" fill="#ffffff" stroke="#546778" stroke-width="2" /><ns0:text x="155.0" y="392.5" font-size="19" text-anchor="middle" fill="#253747" font-weight="normal">Habitaciones</ns0:text><ns0:path d="M35,437 L275,437 L275,502 L35,502 Z" fill="#ffffff" stroke="#546778" stroke-width="2" /><ns0:text x="155.0" y="476.5" font-size="19" text-anchor="middle" fill="#253747" font-weight="normal">Huéspedes</ns0:text><ns0:path d="M35,521 L275,521 L275,586 L35,586 Z" fill="#ffffff" stroke="#546778" stroke-width="2" /><ns0:text x="155.0" y="560.5" font-size="19" text-anchor="middle" fill="#253747" font-weight="normal">Reservas</ns0:text><ns0:path d="M35,605 L275,605 L275,670 L35,670 Z" fill="#ffffff" stroke="#546778" stroke-width="2" /><ns0:text x="155.0" y="644.5" font-size="19" text-anchor="middle" fill="#253747" font-weight="normal">Check-in</ns0:text><ns0:path d="M35,689 L275,689 L275,754 L35,754 Z" fill="#eef1f3" stroke="#546778" stroke-width="2" /><ns0:text x="155.0" y="728.5" font-size="19" text-anchor="middle" fill="#253747" font-weight="bold">Check-out</ns0:text><ns0:path d="M35,773 L275,773 L275,838 L35,838 Z" fill="#ffffff" stroke="#546778" stroke-width="2" /><ns0:text x="155.0" y="812.5" font-size="19" text-anchor="middle" fill="#253747" font-weight="normal">Informes</ns0:text><ns0:path d="M35,857 L275,857 L275,922 L35,922 Z" fill="#ffffff" stroke="#546778" stroke-width="2" /><ns0:text x="155.0" y="896.5" font-size="19" text-anchor="middle" fill="#253747" font-weight="normal">Usuarios</ns0:text><ns0:path d="M315,175 L1455,175 L1455,240 L315,240 Z" fill="#eef1f3" stroke="#546778" stroke-width="2" /><ns0:text x="885.0" y="214.5" font-size="19" text-anchor="middle" fill="#253747" font-weight="bold">Check-out</ns0:text><ns0:path d="M335,265 L870,265 L870,355 L335,355 Z" fill="#ffffff" stroke="#546778" stroke-width="2" /><ns0:text x="602.5" y="304.5" font-size="19" text-anchor="middle" fill="#253747" font-weight="normal">Estadía activa</ns0:text><ns0:text x="602.5" y="329.5" font-size="19" text-anchor="middle" fill="#253747" font-weight="normal">[ campo / selección ]</ns0:text><ns0:path d="M905,265 L1440,265 L1440,355 L905,355 Z" fill="#ffffff" stroke="#546778" stroke-width="2" /><ns0:text x="1172.5" y="304.5" font-size="19" text-anchor="middle" fill="#253747" font-weight="normal">Fecha de salida real</ns0:text><ns0:text x="1172.5" y="329.5" font-size="19" text-anchor="middle" fill="#253747" font-weight="normal">[ campo / selección ]</ns0:text><ns0:path d="M335,380 L870,380 L870,470 L335,470 Z" fill="#ffffff" stroke="#546778" stroke-width="2" /><ns0:text x="602.5" y="419.5" font-size="19" text-anchor="middle" fill="#253747" font-weight="normal">Tarifa de prueba por pasajero/noche (CLP)</ns0:text><ns0:text x="602.5" y="444.5" font-size="19" text-anchor="middle" fill="#253747" font-weight="normal">[ campo / selección ]</ns0:text><ns0:path d="M905,380 L1440,380 L1440,470 L905,470 Z" fill="#ffffff" stroke="#546778" stroke-width="2" /><ns0:text x="1172.5" y="419.5" font-size="19" text-anchor="middle" fill="#253747" font-weight="normal">Cuenta revisada</ns0:text><ns0:text x="1172.5" y="444.5" font-size="19" text-anchor="middle" fill="#253747" font-weight="normal">[ campo / selección ]</ns0:text><ns0:path d="M335,495 L695,495 L695,560 L335,560 Z" fill="#eef1f3" stroke="#546778" stroke-width="2" /><ns0:text x="515.0" y="534.5" font-size="19" text-anchor="middle" fill="#253747" font-weight="normal">Calcular cuenta</ns0:text><ns0:path d="M920,495 L1440,495 L1440,560 L920,560 Z" fill="#eef1f3" stroke="#546778" stroke-width="2" /><ns0:text x="1180.0" y="534.5" font-size="19" text-anchor="middle" fill="#253747" font-weight="normal">Confirmar check-out</ns0:text><ns0:path d="M315,600 L1455,600 L1455,782 L315,782 Z" fill="#ffffff" stroke="#546778" stroke-width="2" /><ns0:path d="M315,644 L1455,644" fill="none" stroke="#546778" stroke-width="2" /><ns0:text x="885.0" y="630" font-size="20" text-anchor="middle" fill="#253747" font-weight="bold">Cuenta por pasajero</ns0:text><ns0:text x="329" y="672" font-size="17" text-anchor="start" fill="#253747" font-weight="normal">Pasajero | Noches | Tarifa de prueba CLP | Costo CLP</ns0:text><ns0:text x="329" y="700" font-size="17" text-anchor="start" fill="#253747" font-weight="normal">[ registro / resultado ]</ns0:text><ns0:text x="329" y="728" font-size="17" text-anchor="start" fill="#253747" font-weight="normal">[ registro / resultado ]</ns0:text><ns0:text x="329" y="756" font-size="17" text-anchor="start" fill="#253747" font-weight="normal">[ registro / resultado ]</ns0:text><ns0:text x="880" y="1145" font-size="16" text-anchor="middle" fill="#253747" font-weight="normal">Datos ficticios para el diseño. Las decisiones de permisos y cobro se detallan en el informe.</ns0:text></ns0:g></g><g id="informes" transform="translate(1560,2500)"><ns0:rect xmlns:ns0="http://www.w3.org/2000/svg" width="100%" height="100%" fill="white" /><ns0:g xmlns:ns0="http://www.w3.org/2000/svg" font-family="Arial,sans-serif"><ns0:text x="750.0" y="44" font-size="27" text-anchor="middle" fill="#163b50" font-weight="bold">Wireframe · Informes</ns0:text><ns0:path d="M35,75 L1465,75 L1465,155 L35,155 Z" fill="#eef1f3" stroke="#546778" stroke-width="2" /><ns0:text x="750.0" y="122.0" font-size="19" text-anchor="middle" fill="#253747" font-weight="normal">Hotel Duerme Bien · Sistema de pasajeros</ns0:text><ns0:path d="M35,185 L275,185 L275,250 L35,250 Z" fill="#ffffff" stroke="#546778" stroke-width="2" /><ns0:text x="155.0" y="224.5" font-size="19" text-anchor="middle" fill="#253747" font-weight="normal">Acceso</ns0:text><ns0:path d="M35,269 L275,269 L275,334 L35,334 Z" fill="#ffffff" stroke="#546778" stroke-width="2" /><ns0:text x="155.0" y="308.5" font-size="19" text-anchor="middle" fill="#253747" font-weight="normal">Disponibilidad</ns0:text><ns0:path d="M35,353 L275,353 L275,418 L35,418 Z" fill="#ffffff" stroke="#546778" stroke-width="2" /><ns0:text x="155.0" y="392.5" font-size="19" text-anchor="middle" fill="#253747" font-weight="normal">Habitaciones</ns0:text><ns0:path d="M35,437 L275,437 L275,502 L35,502 Z" fill="#ffffff" stroke="#546778" stroke-width="2" /><ns0:text x="155.0" y="476.5" font-size="19" text-anchor="middle" fill="#253747" font-weight="normal">Huéspedes</ns0:text><ns0:path d="M35,521 L275,521 L275,586 L35,586 Z" fill="#ffffff" stroke="#546778" stroke-width="2" /><ns0:text x="155.0" y="560.5" font-size="19" text-anchor="middle" fill="#253747" font-weight="normal">Reservas</ns0:text><ns0:path d="M35,605 L275,605 L275,670 L35,670 Z" fill="#ffffff" stroke="#546778" stroke-width="2" /><ns0:text x="155.0" y="644.5" font-size="19" text-anchor="middle" fill="#253747" font-weight="normal">Check-in</ns0:text><ns0:path d="M35,689 L275,689 L275,754 L35,754 Z" fill="#ffffff" stroke="#546778" stroke-width="2" /><ns0:text x="155.0" y="728.5" font-size="19" text-anchor="middle" fill="#253747" font-weight="normal">Check-out</ns0:text><ns0:path d="M35,773 L275,773 L275,838 L35,838 Z" fill="#eef1f3" stroke="#546778" stroke-width="2" /><ns0:text x="155.0" y="812.5" font-size="19" text-anchor="middle" fill="#253747" font-weight="bold">Informes</ns0:text><ns0:path d="M35,857 L275,857 L275,922 L35,922 Z" fill="#ffffff" stroke="#546778" stroke-width="2" /><ns0:text x="155.0" y="896.5" font-size="19" text-anchor="middle" fill="#253747" font-weight="normal">Usuarios</ns0:text><ns0:path d="M315,175 L1455,175 L1455,240 L315,240 Z" fill="#eef1f3" stroke="#546778" stroke-width="2" /><ns0:text x="885.0" y="214.5" font-size="19" text-anchor="middle" fill="#253747" font-weight="bold">Informes</ns0:text><ns0:path d="M335,265 L870,265 L870,355 L335,355 Z" fill="#ffffff" stroke="#546778" stroke-width="2" /><ns0:text x="602.5" y="304.5" font-size="19" text-anchor="middle" fill="#253747" font-weight="normal">Desde</ns0:text><ns0:text x="602.5" y="329.5" font-size="19" text-anchor="middle" fill="#253747" font-weight="normal">[ campo / selección ]</ns0:text><ns0:path d="M905,265 L1440,265 L1440,355 L905,355 Z" fill="#ffffff" stroke="#546778" stroke-width="2" /><ns0:text x="1172.5" y="304.5" font-size="19" text-anchor="middle" fill="#253747" font-weight="normal">Hasta (exclusiva)</ns0:text><ns0:text x="1172.5" y="329.5" font-size="19" text-anchor="middle" fill="#253747" font-weight="normal">[ campo / selección ]</ns0:text><ns0:path d="M335,380 L870,380 L870,445 L335,445 Z" fill="#eef1f3" stroke="#546778" stroke-width="2" /><ns0:text x="602.5" y="419.5" font-size="19" text-anchor="middle" fill="#253747" font-weight="normal">Generar informes</ns0:text><ns0:path d="M315,485 L1455,485 L1455,667 L315,667 Z" fill="#ffffff" stroke="#546778" stroke-width="2" /><ns0:path d="M315,529 L1455,529" fill="none" stroke="#546778" stroke-width="2" /><ns0:text x="885.0" y="515" font-size="20" text-anchor="middle" fill="#253747" font-weight="bold">Resultados / registros</ns0:text><ns0:text x="329" y="557" font-size="17" text-anchor="start" fill="#253747" font-weight="normal">Ocupación: Estadía | Hab. | Entrada | Salida | Pasajeros | Estado</ns0:text><ns0:text x="329" y="585" font-size="17" text-anchor="start" fill="#253747" font-weight="normal">[ registro / resultado ]</ns0:text><ns0:text x="329" y="613" font-size="17" text-anchor="start" fill="#253747" font-weight="normal">[ registro / resultado ]</ns0:text><ns0:text x="329" y="641" font-size="17" text-anchor="start" fill="#253747" font-weight="normal">[ registro / resultado ]</ns0:text><ns0:text x="880" y="1145" font-size="16" text-anchor="middle" fill="#253747" font-weight="normal">Datos ficticios para el diseño. Las decisiones de permisos y cobro se detallan en el informe.</ns0:text></ns0:g></g><g id="usuarios" transform="translate(3120,2500)"><ns0:rect xmlns:ns0="http://www.w3.org/2000/svg" width="100%" height="100%" fill="white" /><ns0:g xmlns:ns0="http://www.w3.org/2000/svg" font-family="Arial,sans-serif"><ns0:text x="750.0" y="44" font-size="27" text-anchor="middle" fill="#163b50" font-weight="bold">Wireframe · Usuarios</ns0:text><ns0:path d="M35,75 L1465,75 L1465,155 L35,155 Z" fill="#eef1f3" stroke="#546778" stroke-width="2" /><ns0:text x="750.0" y="122.0" font-size="19" text-anchor="middle" fill="#253747" font-weight="normal">Hotel Duerme Bien · Sistema de pasajeros</ns0:text><ns0:path d="M35,185 L275,185 L275,250 L35,250 Z" fill="#ffffff" stroke="#546778" stroke-width="2" /><ns0:text x="155.0" y="224.5" font-size="19" text-anchor="middle" fill="#253747" font-weight="normal">Acceso</ns0:text><ns0:path d="M35,269 L275,269 L275,334 L35,334 Z" fill="#ffffff" stroke="#546778" stroke-width="2" /><ns0:text x="155.0" y="308.5" font-size="19" text-anchor="middle" fill="#253747" font-weight="normal">Disponibilidad</ns0:text><ns0:path d="M35,353 L275,353 L275,418 L35,418 Z" fill="#ffffff" stroke="#546778" stroke-width="2" /><ns0:text x="155.0" y="392.5" font-size="19" text-anchor="middle" fill="#253747" font-weight="normal">Habitaciones</ns0:text><ns0:path d="M35,437 L275,437 L275,502 L35,502 Z" fill="#ffffff" stroke="#546778" stroke-width="2" /><ns0:text x="155.0" y="476.5" font-size="19" text-anchor="middle" fill="#253747" font-weight="normal">Huéspedes</ns0:text><ns0:path d="M35,521 L275,521 L275,586 L35,586 Z" fill="#ffffff" stroke="#546778" stroke-width="2" /><ns0:text x="155.0" y="560.5" font-size="19" text-anchor="middle" fill="#253747" font-weight="normal">Reservas</ns0:text><ns0:path d="M35,605 L275,605 L275,670 L35,670 Z" fill="#ffffff" stroke="#546778" stroke-width="2" /><ns0:text x="155.0" y="644.5" font-size="19" text-anchor="middle" fill="#253747" font-weight="normal">Check-in</ns0:text><ns0:path d="M35,689 L275,689 L275,754 L35,754 Z" fill="#ffffff" stroke="#546778" stroke-width="2" /><ns0:text x="155.0" y="728.5" font-size="19" text-anchor="middle" fill="#253747" font-weight="normal">Check-out</ns0:text><ns0:path d="M35,773 L275,773 L275,838 L35,838 Z" fill="#ffffff" stroke="#546778" stroke-width="2" /><ns0:text x="155.0" y="812.5" font-size="19" text-anchor="middle" fill="#253747" font-weight="normal">Informes</ns0:text><ns0:path d="M35,857 L275,857 L275,922 L35,922 Z" fill="#eef1f3" stroke="#546778" stroke-width="2" /><ns0:text x="155.0" y="896.5" font-size="19" text-anchor="middle" fill="#253747" font-weight="bold">Usuarios</ns0:text><ns0:path d="M315,175 L1455,175 L1455,240 L315,240 Z" fill="#eef1f3" stroke="#546778" stroke-width="2" /><ns0:text x="885.0" y="214.5" font-size="19" text-anchor="middle" fill="#253747" font-weight="bold">Usuarios</ns0:text><ns0:path d="M335,265 L870,265 L870,355 L335,355 Z" fill="#ffffff" stroke="#546778" stroke-width="2" /><ns0:text x="602.5" y="304.5" font-size="19" text-anchor="middle" fill="#253747" font-weight="normal">Nombre de usuario</ns0:text><ns0:text x="602.5" y="329.5" font-size="19" text-anchor="middle" fill="#253747" font-weight="normal">[ campo / selección ]</ns0:text><ns0:path d="M905,265 L1440,265 L1440,355 L905,355 Z" fill="#ffffff" stroke="#546778" stroke-width="2" /><ns0:text x="1172.5" y="304.5" font-size="19" text-anchor="middle" fill="#253747" font-weight="normal">Perfil</ns0:text><ns0:text x="1172.5" y="329.5" font-size="19" text-anchor="middle" fill="#253747" font-weight="normal">[ campo / selección ]</ns0:text><ns0:path d="M335,380 L870,380 L870,470 L335,470 Z" fill="#ffffff" stroke="#546778" stroke-width="2" /><ns0:text x="602.5" y="419.5" font-size="19" text-anchor="middle" fill="#253747" font-weight="normal">Estado del usuario</ns0:text><ns0:text x="602.5" y="444.5" font-size="19" text-anchor="middle" fill="#253747" font-weight="normal">[ campo / selección ]</ns0:text><ns0:path d="M335,495 L870,495 L870,560 L335,560 Z" fill="#eef1f3" stroke="#546778" stroke-width="2" /><ns0:text x="602.5" y="534.5" font-size="19" text-anchor="middle" fill="#253747" font-weight="normal">Guardar usuario</ns0:text><ns0:path d="M315,600 L1455,600 L1455,754 L315,754 Z" fill="#ffffff" stroke="#546778" stroke-width="2" /><ns0:path d="M315,644 L1455,644" fill="none" stroke="#546778" stroke-width="2" /><ns0:text x="885.0" y="630" font-size="20" text-anchor="middle" fill="#253747" font-weight="bold">Resultados / registros</ns0:text><ns0:text x="329" y="672" font-size="17" text-anchor="start" fill="#253747" font-weight="normal">Usuario | Perfil | Estado | Acción</ns0:text><ns0:text x="329" y="700" font-size="17" text-anchor="start" fill="#253747" font-weight="normal">[ registro / resultado ]</ns0:text><ns0:text x="329" y="728" font-size="17" text-anchor="start" fill="#253747" font-weight="normal">[ registro / resultado ]</ns0:text><ns0:text x="880" y="1145" font-size="16" text-anchor="middle" fill="#253747" font-weight="normal">Datos ficticios para el diseño. Las decisiones de permisos y cobro se detallan en el informe.</ns0:text></ns0:g></g></svg>