<svg xmlns="http://www.w3.org/2000/svg" width="1500" height="1190" viewBox="0 0 1500 1190"><rect width="100%" height="100%" fill="white"/><g font-family="Arial,sans-serif"><text x="750.0" y="44" font-size="27" text-anchor="middle" fill="#163b50" font-weight="bold">Wireframe · Usuarios</text><path d="M35,75 L1465,75 L1465,155 L35,155 Z" fill="#eef1f3" stroke="#546778" stroke-width="2"/><text x="750.0" y="122.0" font-size="19" text-anchor="middle" fill="#253747" font-weight="normal">Hotel Duerme Bien · Sistema de pasajeros</text><path d="M35,185 L275,185 L275,250 L35,250 Z" fill="#ffffff" stroke="#546778" stroke-width="2"/><text x="155.0" y="224.5" font-size="19" text-anchor="middle" fill="#253747" font-weight="normal">Acceso</text><path d="M35,269 L275,269 L275,334 L35,334 Z" fill="#ffffff" stroke="#546778" stroke-width="2"/><text x="155.0" y="308.5" font-size="19" text-anchor="middle" fill="#253747" font-weight="normal">Disponibilidad</text><path d="M35,353 L275,353 L275,418 L35,418 Z" fill="#ffffff" stroke="#546778" stroke-width="2"/><text x="155.0" y="392.5" font-size="19" text-anchor="middle" fill="#253747" font-weight="normal">Habitaciones</text><path d="M35,437 L275,437 L275,502 L35,502 Z" fill="#ffffff" stroke="#546778" stroke-width="2"/><text x="155.0" y="476.5" font-size="19" text-anchor="middle" fill="#253747" font-weight="normal">Huéspedes</text><path d="M35,521 L275,521 L275,586 L35,586 Z" fill="#ffffff" stroke="#546778" stroke-width="2"/><text x="155.0" y="560.5" font-size="19" text-anchor="middle" fill="#253747" font-weight="normal">Reservas</text><path d="M35,605 L275,605 L275,670 L35,670 Z" fill="#ffffff" stroke="#546778" stroke-width="2"/><text x="155.0" y="644.5" font-size="19" text-anchor="middle" fill="#253747" font-weight="normal">Check-in</text><path d="M35,689 L275,689 L275,754 L35,754 Z" fill="#ffffff" stroke="#546778" stroke-width="2"/><text x="155.0" y="728.5" font-size="19" text-anchor="middle" fill="#253747" font-weight="normal">Check-out</text><path d="M35,773 L275,773 L275,838 L35,838 Z" fill="#ffffff" stroke="#546778" stroke-width="2"/><text x="155.0" y="812.5" font-size="19" text-anchor="middle" fill="#253747" font-weight="normal">Informes</text><path d="M35,857 L275,857 L275,922 L35,922 Z" fill="#eef1f3" stroke="#546778" stroke-width="2"/><text x="155.0" y="896.5" font-size="19" text-anchor="middle" fill="#253747" font-weight="bold">Usuarios</text><path d="M315,175 L1455,175 L1455,240 L315,240 Z" fill="#eef1f3" stroke="#546778" stroke-width="2"/><text x="885.0" y="214.5" font-size="19" text-anchor="middle" fill="#253747" font-weight="bold">Usuarios</text><path d="M335,265 L870,265 L870,355 L335,355 Z" fill="#ffffff" stroke="#546778" stroke-width="2"/><text x="602.5" y="304.5" font-size="19" text-anchor="middle" fill="#253747" font-weight="normal">Nombre de usuario</text><text x="602.5" y="329.5" font-size="19" text-anchor="middle" fill="#253747" font-weight="normal">[ campo / selección ]</text><path d="M905,265 L1440,265 L1440,355 L905,355 Z" fill="#ffffff" stroke="#546778" stroke-width="2"/><text x="1172.5" y="304.5" font-size="19" text-anchor="middle" fill="#253747" font-weight="normal">Perfil</text><text x="1172.5" y="329.5" font-size="19" text-anchor="middle" fill="#253747" font-weight="normal">[ campo / selección ]</text><path d="M335,380 L870,380 L870,470 L335,470 Z" fill="#ffffff" stroke="#546778" stroke-width="2"/><text x="602.5" y="419.5" font-size="19" text-anchor="middle" fill="#253747" font-weight="normal">Estado del usuario</text><text x="602.5" y="444.5" font-size="19" text-anchor="middle" fill="#253747" font-weight="normal">[ campo / selección ]</text><path d="M335,495 L870,495 L870,560 L335,560 Z" fill="#eef1f3" stroke="#546778" stroke-width="2"/><text x="602.5" y="534.5" font-size="19" text-anchor="middle" fill="#253747" font-weight="normal">Guardar usuario</text><path d="M315,600 L1455,600 L1455,754 L315,754 Z" fill="#ffffff" stroke="#546778" stroke-width="2"/><path d="M315,644 L1455,644" fill="none" stroke="#546778" stroke-width="2"/><text x="885.0" y="630" font-size="20" text-anchor="middle" fill="#253747" font-weight="bold">Resultados / registros</text><text x="329" y="672" font-size="17" text-anchor="start" fill="#253747" font-weight="normal">Usuario | Perfil | Estado | Acción</text><text x="329" y="700" font-size="17" text-anchor="start" fill="#253747" font-weight="normal">[ registro / resultado ]</text><text x="329" y="728" font-size="17" text-anchor="start" fill="#253747" font-weight="normal">[ registro / resultado ]</text><text x="880" y="1145" font-size="16" text-anchor="middle" fill="#253747" font-weight="normal">Datos ficticios para el diseño. Las decisiones de permisos y cobro se detallan en el informe.</text></g></svg>