<svg xmlns="http://www.w3.org/2000/svg" width="1320" height="1020" viewBox="0 0 1320 1020"><rect width="100%" height="100%" fill="white"/><g font-family="Arial,sans-serif"><text x="660.0" y="44" font-size="27" text-anchor="middle" fill="#163b50" font-weight="bold">Casos de uso · Administración</text><path d="M420,85 L1240,85 L1240,935 L420,935 Z" fill="#ffffff" stroke="#546778" stroke-width="4"/><text x="440" y="115" font-size="20" text-anchor="start" fill="#253747" font-weight="bold">Duerme Bien</text><path d="M197.5,550 L197.5,275" fill="none" stroke="#546778" stroke-width="4"/><path d="M197.5,275 L208.5,294.0 L186.5,294.0 Z" fill="#ffffff" stroke="#546778" stroke-width="4"/><path d="M197.5,611.25 L585,337.5" fill="none" stroke="#546778" stroke-width="4"/><path d="M197.5,611.25 L585,557.5" fill="none" stroke="#546778" stroke-width="4"/><path d="M197.5,611.25 L585,777.5" fill="none" stroke="#546778" stroke-width="4"/><ellipse cx="197.5" cy="116.0" rx="16.0" ry="16.0" fill="#ffffff" stroke="#546778" stroke-width="4"/><path d="M197.5,132 L197.5,190" fill="none" stroke="#546778" stroke-width="4"/><path d="M162.5,157 L232.5,157" fill="none" stroke="#546778" stroke-width="4"/><path d="M197.5,190 L167.5,235" fill="none" stroke="#546778" stroke-width="4"/><path d="M197.5,190 L227.5,235" fill="none" stroke="#546778" stroke-width="4"/><text x="197.5" y="262" font-size="20" text-anchor="middle" fill="#253747" font-weight="normal">Encargado</text><ellipse cx="197.5" cy="566.0" rx="16.0" ry="16.0" fill="#ffffff" stroke="#546778" stroke-width="4"/><path d="M197.5,582 L197.5,640" fill="none" stroke="#546778" stroke-width="4"/><path d="M162.5,607 L232.5,607" fill="none" stroke="#546778" stroke-width="4"/><path d="M197.5,640 L167.5,685" fill="none" stroke="#546778" stroke-width="4"/><path d="M197.5,640 L227.5,685" fill="none" stroke="#546778" stroke-width="4"/><text x="197.5" y="712" font-size="20" text-anchor="middle" fill="#253747" font-weight="normal">Administrador</text><ellipse cx="820.0" cy="337.5" rx="235.0" ry="47.5" fill="#ffffff" stroke="#546778" stroke-width="4"/><text x="820.0" y="332.0" font-size="22" text-anchor="middle" fill="#253747" font-weight="bold">CU02</text><text x="820.0" y="357.0" font-size="22" text-anchor="middle" fill="#253747" font-weight="bold">Gestionar habitaciones</text><ellipse cx="820.0" cy="557.5" rx="235.0" ry="47.5" fill="#ffffff" stroke="#546778" stroke-width="4"/><text x="820.0" y="552.0" font-size="22" text-anchor="middle" fill="#253747" font-weight="bold">CU08</text><text x="820.0" y="577.0" font-size="22" text-anchor="middle" fill="#253747" font-weight="bold">Gestionar usuarios</text><ellipse cx="820.0" cy="777.5" rx="235.0" ry="47.5" fill="#ffffff" stroke="#546778" stroke-width="4"/><text x="820.0" y="772.0" font-size="22" text-anchor="middle" fill="#253747" font-weight="bold">CU10</text><text x="820.0" y="797.0" font-size="22" text-anchor="middle" fill="#253747" font-weight="bold">Generar informes</text></g></svg>