<svg xmlns="http://www.w3.org/2000/svg" width="1400" height="1000" viewBox="0 0 1400 1000"><defs><marker id="arrow" markerWidth="10" markerHeight="10" refX="9" refY="5" orient="auto"><path d="M1,1 L9,5 L1,9" fill="none" stroke="#263545"/></marker></defs><rect width="100%" height="100%" fill="white"/><g font-family="Arial, sans-serif" fill="#182b3b"><rect x="270" y="60" width="1080" height="870" fill="#ffffff" stroke="#263545" stroke-width="1.6"/><text x="810" y="93" font-size="23" text-anchor="middle" font-weight="bold">Sistema de Pasajeros de Hotel - Duerme Bien</text><circle cx="115" cy="265" r="13" fill="white" stroke="#263545"/><path d="M115,278 V318 M92,295 H138 M115,318 L92,347 M115,318 L138,347" stroke="#263545" fill="none"/><path d="M115,278 L115,318" fill="none" stroke="#263545" stroke-width="1.6"  /><path d="M92,295 L138,295" fill="none" stroke="#263545" stroke-width="1.6"  /><path d="M115,318 L92,347" fill="none" stroke="#263545" stroke-width="1.6"  /><path d="M115,318 L138,347" fill="none" stroke="#263545" stroke-width="1.6"  /><text x="115" y="374" font-size="16" text-anchor="middle" font-weight="normal">Encargado</text><circle cx="115" cy="730" r="13" fill="white" stroke="#263545"/><path d="M115,743 V783 M92,760 H138 M115,783 L92,812 M115,783 L138,812" stroke="#263545" fill="none"/><path d="M115,743 L115,783" fill="none" stroke="#263545" stroke-width="1.6"  /><path d="M92,760 L138,760" fill="none" stroke="#263545" stroke-width="1.6"  /><path d="M115,783 L92,812" fill="none" stroke="#263545" stroke-width="1.6"  /><path d="M115,783 L138,812" fill="none" stroke="#263545" stroke-width="1.6"  /><text x="115" y="839" font-size="16" text-anchor="middle" font-weight="normal">Administrador</text><ellipse cx="872.5" cy="182.5" rx="132.5" ry="32.5" fill="#ffffff" stroke="#263545" stroke-width="1.6"/><text x="872.5" y="177.5" font-size="15" text-anchor="middle" font-weight="normal">CU01</text><text x="872.5" y="199.5" font-size="15" text-anchor="middle" font-weight="normal">Iniciar sesión</text><ellipse cx="502.5" cy="702.5" rx="132.5" ry="32.5" fill="#ffffff" stroke="#263545" stroke-width="1.6"/><text x="502.5" y="697.5" font-size="15" text-anchor="middle" font-weight="normal">CU02</text><text x="502.5" y="719.5" font-size="15" text-anchor="middle" font-weight="normal">Gestionar habitaciones</text><ellipse cx="502.5" cy="182.5" rx="132.5" ry="32.5" fill="#ffffff" stroke="#263545" stroke-width="1.6"/><text x="502.5" y="177.5" font-size="15" text-anchor="middle" font-weight="normal">CU03</text><text x="502.5" y="199.5" font-size="15" text-anchor="middle" font-weight="normal">Registrar huésped</text><ellipse cx="502.5" cy="312.5" rx="132.5" ry="32.5" fill="#ffffff" stroke="#263545" stroke-width="1.6"/><text x="502.5" y="307.5" font-size="15" text-anchor="middle" font-weight="normal">CU04</text><text x="502.5" y="329.5" font-size="15" text-anchor="middle" font-weight="normal">Registrar check-in</text><ellipse cx="1132.5" cy="407.5" rx="132.5" ry="32.5" fill="#ffffff" stroke="#263545" stroke-width="1.6"/><text x="1132.5" y="402.5" font-size="15" text-anchor="middle" font-weight="normal">CU05</text><text x="1132.5" y="424.5" font-size="15" text-anchor="middle" font-weight="normal">Consultar disponibilidad</text><ellipse cx="502.5" cy="537.5" rx="132.5" ry="32.5" fill="#ffffff" stroke="#263545" stroke-width="1.6"/><text x="502.5" y="532.5" font-size="15" text-anchor="middle" font-weight="normal">CU06</text><text x="502.5" y="554.5" font-size="15" text-anchor="middle" font-weight="normal">Registrar check-out</text><ellipse cx="1132.5" cy="537.5" rx="132.5" ry="32.5" fill="#ffffff" stroke="#263545" stroke-width="1.6"/><text x="1132.5" y="532.5" font-size="15" text-anchor="middle" font-weight="normal">CU07</text><text x="1132.5" y="554.5" font-size="15" text-anchor="middle" font-weight="normal">Calcular cuenta</text><ellipse cx="872.5" cy="832.5" rx="132.5" ry="32.5" fill="#ffffff" stroke="#263545" stroke-width="1.6"/><text x="872.5" y="827.5" font-size="15" text-anchor="middle" font-weight="normal">CU08</text><text x="872.5" y="849.5" font-size="15" text-anchor="middle" font-weight="normal">Gestionar usuarios</text><ellipse cx="502.5" cy="427.5" rx="132.5" ry="32.5" fill="#ffffff" stroke="#263545" stroke-width="1.6"/><text x="502.5" y="422.5" font-size="15" text-anchor="middle" font-weight="normal">CU09</text><text x="502.5" y="444.5" font-size="15" text-anchor="middle" font-weight="normal">Gestionar reservas</text><ellipse cx="872.5" cy="702.5" rx="132.5" ry="32.5" fill="#ffffff" stroke="#263545" stroke-width="1.6"/><text x="872.5" y="697.5" font-size="15" text-anchor="middle" font-weight="normal">CU10</text><text x="872.5" y="719.5" font-size="15" text-anchor="middle" font-weight="normal">Generar informes</text><path d="M140,302 L740,182" fill="none" stroke="#263545" stroke-width="1.6"  /><path d="M140,302 L370,182" fill="none" stroke="#263545" stroke-width="1.6"  /><path d="M140,302 L370,312" fill="none" stroke="#263545" stroke-width="1.6"  /><path d="M140,302 L1000,407" fill="none" stroke="#263545" stroke-width="1.6"  /><path d="M140,302 L370,537" fill="none" stroke="#263545" stroke-width="1.6"  /><path d="M140,302 L370,427" fill="none" stroke="#263545" stroke-width="1.6"  /><path d="M140,765 L740,182" fill="none" stroke="#263545" stroke-width="1.6"  /><path d="M140,765 L370,702" fill="none" stroke="#263545" stroke-width="1.6"  /><path d="M140,765 L740,832" fill="none" stroke="#263545" stroke-width="1.6"  /><path d="M140,765 L740,702" fill="none" stroke="#263545" stroke-width="1.6"  /><path d="M635,312 L1000,407" fill="none" stroke="#263545" stroke-width="1.6" stroke-dasharray="6 5" marker-end="url(#arrow)"/><text x="817.5" y="350.5" font-size="13" text-anchor="middle" font-weight="normal">&lt;&lt;include&gt;&gt;</text><path d="M635,427 L1000,407" fill="none" stroke="#263545" stroke-width="1.6" stroke-dasharray="6 5" marker-end="url(#arrow)"/><text x="817.5" y="408.0" font-size="13" text-anchor="middle" font-weight="normal">&lt;&lt;include&gt;&gt;</text><path d="M635,537 L1000,537" fill="none" stroke="#263545" stroke-width="1.6" stroke-dasharray="6 5" marker-end="url(#arrow)"/><text x="817.5" y="528.0" font-size="13" text-anchor="middle" font-weight="normal">&lt;&lt;include&gt;&gt;</text><text x="720" y="969" font-size="16" text-anchor="middle" font-weight="normal">Asignación detallada de permisos preliminar, pendiente de validar.</text></g></svg>