<svg xmlns="http://www.w3.org/2000/svg" width="1900" height="1250" viewBox="0 0 1900 1250"><defs><marker id="arrow" markerWidth="10" markerHeight="10" refX="9" refY="5" orient="auto"><path d="M1,1 L9,5 L1,9" fill="none" stroke="#263545"/></marker></defs><rect width="100%" height="100%" fill="white"/><g font-family="Arial, sans-serif" fill="#182b3b"><text x="950" y="40" font-size="26" text-anchor="middle" font-weight="bold">Diagrama de clases - Duerme Bien</text><rect x="80" y="90" width="340" height="178" fill="#ffffff" stroke="#263545" stroke-width="1.6"/><text x="250" y="118" font-size="19" text-anchor="middle" font-weight="bold">Usuario</text><path d="M80,132 L420,132" fill="none" stroke="#263545" stroke-width="1.6"  /><text x="92" y="155" font-size="15" text-anchor="start" font-weight="normal">- id: int</text><text x="92" y="179" font-size="15" text-anchor="start" font-weight="normal">- nombreUsuario: String</text><text x="92" y="203" font-size="15" text-anchor="start" font-weight="normal">- hashClave: String</text><path d="M80,212 L420,212" fill="none" stroke="#263545" stroke-width="1.6"  /><text x="92" y="236" font-size="15" text-anchor="start" font-weight="normal">+ iniciarSesion()</text><text x="92" y="260" font-size="15" text-anchor="start" font-weight="normal">+ cerrarSesion()</text><rect x="50" y="460" width="340" height="130" fill="#ffffff" stroke="#263545" stroke-width="1.6"/><text x="220" y="488" font-size="19" text-anchor="middle" font-weight="bold">Administrador</text><path d="M50,502 L390,502" fill="none" stroke="#263545" stroke-width="1.6"  /><path d="M50,510 L390,510" fill="none" stroke="#263545" stroke-width="1.6"  /><text x="62" y="534" font-size="15" text-anchor="start" font-weight="normal">+ gestionarUsuarios()</text><text x="62" y="558" font-size="15" text-anchor="start" font-weight="normal">+ gestionarHabitaciones()</text><text x="62" y="582" font-size="15" text-anchor="start" font-weight="normal">+ generarInformes()</text><rect x="450" y="460" width="340" height="154" fill="#ffffff" stroke="#263545" stroke-width="1.6"/><text x="620" y="488" font-size="19" text-anchor="middle" font-weight="bold">Encargado</text><path d="M450,502 L790,502" fill="none" stroke="#263545" stroke-width="1.6"  /><path d="M450,510 L790,510" fill="none" stroke="#263545" stroke-width="1.6"  /><text x="462" y="534" font-size="15" text-anchor="start" font-weight="normal">+ registrarHuesped()</text><text x="462" y="558" font-size="15" text-anchor="start" font-weight="normal">+ registrarCheckIn()</text><text x="462" y="582" font-size="15" text-anchor="start" font-weight="normal">+ registrarCheckOut()</text><text x="462" y="606" font-size="15" text-anchor="start" font-weight="normal">+ gestionarReservas()</text><rect x="880" y="90" width="340" height="202" fill="#ffffff" stroke="#263545" stroke-width="1.6"/><text x="1050" y="118" font-size="19" text-anchor="middle" font-weight="bold">Huesped</text><path d="M880,132 L1220,132" fill="none" stroke="#263545" stroke-width="1.6"  /><text x="892" y="155" font-size="15" text-anchor="start" font-weight="normal">- id: int</text><text x="892" y="179" font-size="15" text-anchor="start" font-weight="normal">- identificacion: String</text><text x="892" y="203" font-size="15" text-anchor="start" font-weight="normal">- nombres: String</text><text x="892" y="227" font-size="15" text-anchor="start" font-weight="normal">- apellidos: String</text><path d="M880,236 L1220,236" fill="none" stroke="#263545" stroke-width="1.6"  /><text x="892" y="260" font-size="15" text-anchor="start" font-weight="normal">+ registrar()</text><text x="892" y="284" font-size="15" text-anchor="start" font-weight="normal">+ actualizarDatos()</text><rect x="1450" y="90" width="340" height="202" fill="#ffffff" stroke="#263545" stroke-width="1.6"/><text x="1620" y="118" font-size="19" text-anchor="middle" font-weight="bold">Habitacion</text><path d="M1450,132 L1790,132" fill="none" stroke="#263545" stroke-width="1.6"  /><text x="1462" y="155" font-size="15" text-anchor="start" font-weight="normal">- id: int</text><text x="1462" y="179" font-size="15" text-anchor="start" font-weight="normal">- numero: String</text><text x="1462" y="203" font-size="15" text-anchor="start" font-weight="normal">- capacidad: int</text><text x="1462" y="227" font-size="15" text-anchor="start" font-weight="normal">- orientacion: String</text><path d="M1450,236 L1790,236" fill="none" stroke="#263545" stroke-width="1.6"  /><text x="1462" y="260" font-size="15" text-anchor="start" font-weight="normal">+ consultarDisponibilidad()</text><text x="1462" y="284" font-size="15" text-anchor="start" font-weight="normal">+ actualizarDatos()</text><rect x="880" y="500" width="340" height="226" fill="#ffffff" stroke="#263545" stroke-width="1.6"/><text x="1050" y="528" font-size="19" text-anchor="middle" font-weight="bold">Reserva</text><path d="M880,542 L1220,542" fill="none" stroke="#263545" stroke-width="1.6"  /><text x="892" y="565" font-size="15" text-anchor="start" font-weight="normal">- id: int</text><text x="892" y="589" font-size="15" text-anchor="start" font-weight="normal">- fechaEntrada: Date</text><text x="892" y="613" font-size="15" text-anchor="start" font-weight="normal">- fechaSalida: Date</text><text x="892" y="637" font-size="15" text-anchor="start" font-weight="normal">- cantidadPasajeros: int</text><text x="892" y="661" font-size="15" text-anchor="start" font-weight="normal">- estado: String</text><path d="M880,670 L1220,670" fill="none" stroke="#263545" stroke-width="1.6"  /><text x="892" y="694" font-size="15" text-anchor="start" font-weight="normal">+ registrar()</text><text x="892" y="718" font-size="15" text-anchor="start" font-weight="normal">+ modificar()</text><rect x="1450" y="500" width="340" height="250" fill="#ffffff" stroke="#263545" stroke-width="1.6"/><text x="1620" y="528" font-size="19" text-anchor="middle" font-weight="bold">Estadia</text><path d="M1450,542 L1790,542" fill="none" stroke="#263545" stroke-width="1.6"  /><text x="1462" y="565" font-size="15" text-anchor="start" font-weight="normal">- id: int</text><text x="1462" y="589" font-size="15" text-anchor="start" font-weight="normal">- fechaEntrada: Date</text><text x="1462" y="613" font-size="15" text-anchor="start" font-weight="normal">- fechaSalidaPrevista: Date</text><text x="1462" y="637" font-size="15" text-anchor="start" font-weight="normal">- fechaSalidaReal: Date?</text><text x="1462" y="661" font-size="15" text-anchor="start" font-weight="normal">- estado: String</text><path d="M1450,670 L1790,670" fill="none" stroke="#263545" stroke-width="1.6"  /><text x="1462" y="694" font-size="15" text-anchor="start" font-weight="normal">+ registrarCheckIn()</text><text x="1462" y="718" font-size="15" text-anchor="start" font-weight="normal">+ calcularCuenta()</text><text x="1462" y="742" font-size="15" text-anchor="start" font-weight="normal">+ registrarCheckOut()</text><rect x="1130" y="1030" width="340" height="106" fill="#ffffff" stroke="#263545" stroke-width="1.6"/><text x="1300" y="1058" font-size="19" text-anchor="middle" font-weight="bold">EstadiaHuesped</text><path d="M1130,1072 L1470,1072" fill="none" stroke="#263545" stroke-width="1.6"  /><text x="1142" y="1095" font-size="15" text-anchor="start" font-weight="normal">- costoCalculadoCLP: Decimal?</text><path d="M1130,1104 L1470,1104" fill="none" stroke="#263545" stroke-width="1.6"  /><text x="1142" y="1128" font-size="15" text-anchor="start" font-weight="normal">+ calcularCosto(reglaCobro)</text><path d="M220,460 L220,365" fill="none" stroke="#263545" stroke-width="1.6"  /><path d="M220,365 L620,365" fill="none" stroke="#263545" stroke-width="1.6"  /><path d="M620,365 L620,460" fill="none" stroke="#263545" stroke-width="1.6"  /><path d="M250,365 L250,282" fill="none" stroke="#263545" stroke-width="1.6"  /><polygon points="250,268 239,284 261,284" fill="white" stroke="#263545"/><path d="M1050,292 L1050,500" fill="none" stroke="#263545" stroke-width="1.6"  /><text x="1050.0" y="387.0" font-size="13" text-anchor="middle" font-weight="normal">1 titular / 0..*</text><path d="M1620,292 L1620,500" fill="none" stroke="#263545" stroke-width="1.6"  /><text x="1620.0" y="387.0" font-size="13" text-anchor="middle" font-weight="normal">1 / 0..*</text><path d="M1450,205 L1350,205" fill="none" stroke="#263545" stroke-width="1.6"  /><path d="M1350,205 L1350,410" fill="none" stroke="#263545" stroke-width="1.6"  /><path d="M1350,410 L1200,410" fill="none" stroke="#263545" stroke-width="1.6"  /><path d="M1200,410 L1200,500" fill="none" stroke="#263545" stroke-width="1.6"  /><text x="1300" y="394" font-size="14" text-anchor="middle" font-weight="normal">1 / 0..*</text><path d="M1220,700 L1450,700" fill="none" stroke="#263545" stroke-width="1.6"  /><text x="1335.0" y="691.0" font-size="13" text-anchor="middle" font-weight="normal">0..1 / 0..1</text><path d="M880,205 L830,205" fill="none" stroke="#263545" stroke-width="1.6"  /><path d="M830,205 L830,1100" fill="none" stroke="#263545" stroke-width="1.6"  /><path d="M830,1100 L1130,1100" fill="none" stroke="#263545" stroke-width="1.6"  /><text x="990" y="1080" font-size="14" text-anchor="middle" font-weight="normal">1 / 0..*</text><path d="M1620,774 L1620,1090" fill="none" stroke="#263545" stroke-width="1.6"  /><path d="M1620,1090 L1470,1090" fill="none" stroke="#263545" stroke-width="1.6"  /><text x="1560" y="1070" font-size="14" text-anchor="middle" font-weight="normal">1 / 1..*</text><polygon points="1620,750 1611,762 1620,774 1629,762" fill="#263545"/></g></svg>