<svg xmlns="http://www.w3.org/2000/svg" width="2200" height="1540" viewBox="0 0 2200 1540"><rect width="100%" height="100%" fill="white"/><g font-family="Arial,sans-serif"><text x="1100.0" y="44" font-size="27" text-anchor="middle" fill="#163b50" font-weight="bold">Clases de dominio · Duerme Bien</text><path d="M565,163.9 L800,168.52" fill="none" stroke="#546778" stroke-width="2"/><text x="583.9928518429363" y="152.62726372559305" font-size="17" text-anchor="middle" fill="#253747" font-weight="normal">1</text><text x="745.0071481570637" y="155.79273627440696" font-size="17" text-anchor="middle" fill="#253747" font-weight="normal">0..*</text><path d="M1917.0,348 L1917.0,690" fill="none" stroke="#546778" stroke-width="2"/><text x="1899.0" y="373.0" font-size="17" text-anchor="middle" fill="#253747" font-weight="normal">1</text><text x="1899.0" y="641.0" font-size="17" text-anchor="middle" fill="#253747" font-weight="normal">0..*</text><path d="M1525,169.5 L1430,175 L1430,590 L1045,590 L1045.0,690" fill="none" stroke="#546778" stroke-width="2"/><text x="1470.0618528647576" y="159.63852430782984" font-size="17" text-anchor="middle" fill="#253747" font-weight="normal">1</text><text x="1027.0" y="641.0" font-size="17" text-anchor="middle" fill="#253747" font-weight="normal">0..*</text><path d="M565,761.4 L800,778.2" fill="none" stroke="#546778" stroke-width="2"/><text x="583.9058123886623" y="752.0383729707639" font-size="17" text-anchor="middle" fill="#253747" font-weight="normal">1</text><text x="745.0941876113377" y="763.5616270292361" font-size="17" text-anchor="middle" fill="#253747" font-weight="normal">0..*</text><path d="M1290,895.8 L1525,915.4" fill="none" stroke="#546778" stroke-width="2"/><text x="1308.871976547014" y="886.8752797460488" font-size="17" text-anchor="middle" fill="#253747" font-weight="normal">0..1</text><text x="1470.128023452986" y="900.3247202539511" font-size="17" text-anchor="middle" fill="#253747" font-weight="normal">0..1</text><path d="M320.0,928 L320,1160 L700,1160 L700,1360 L800,1357.0" fill="none" stroke="#546778" stroke-width="2"/><text x="302.0" y="953.0" font-size="17" text-anchor="middle" fill="#253747" font-weight="normal">1</text><text x="745.0166387696725" y="1346.1095008369098" font-size="17" text-anchor="middle" fill="#253747" font-weight="normal">0..*</text><path d="M1868.0,1012 L1868,1160 L2000,1160 L2000,1360 L1290,1357.0" fill="none" stroke="#546778" stroke-width="2"/><path d="M1868.0,1012 L1875.0,1022.0 L1868.0,1032.0 L1861.0,1022.0 Z" fill="#546778" stroke="#546778" stroke-width="2"/><text x="1850.0" y="1037.0" font-size="17" text-anchor="middle" fill="#253747" font-weight="normal">1</text><text x="1308.9996697128138" y="1345.1563366325893" font-size="17" text-anchor="middle" fill="#253747" font-weight="normal">1..*</text><path d="M75,110 L565,110 L565,264 L75,264 Z" fill="#ffffff" stroke="#546778" stroke-width="2"/><path d="M75,154 L565,154" fill="none" stroke="#546778" stroke-width="2"/><text x="320.0" y="140" font-size="20" text-anchor="middle" fill="#253747" font-weight="bold">Rol</text><text x="89" y="182" font-size="17" text-anchor="start" fill="#253747" font-weight="normal">- id: int</text><text x="89" y="210" font-size="17" text-anchor="start" fill="#253747" font-weight="normal">- nombre: String</text><path d="M75,221 L565,221" fill="none" stroke="#546778" stroke-width="2"/><text x="89" y="248" font-size="17" text-anchor="start" fill="#253747" font-weight="normal">+ permite(operacion: String): bool</text><path d="M800,110 L1290,110 L1290,376 L800,376 Z" fill="#ffffff" stroke="#546778" stroke-width="2"/><path d="M800,154 L1290,154" fill="none" stroke="#546778" stroke-width="2"/><text x="1045.0" y="140" font-size="20" text-anchor="middle" fill="#253747" font-weight="bold">Usuario</text><text x="814" y="182" font-size="17" text-anchor="start" fill="#253747" font-weight="normal">- id: int</text><text x="814" y="210" font-size="17" text-anchor="start" fill="#253747" font-weight="normal">- nombreUsuario: String</text><text x="814" y="238" font-size="17" text-anchor="start" fill="#253747" font-weight="normal">- hashClave: String</text><text x="814" y="266" font-size="17" text-anchor="start" fill="#253747" font-weight="normal">- activo: bool</text><path d="M800,277 L1290,277" fill="none" stroke="#546778" stroke-width="2"/><text x="814" y="304" font-size="17" text-anchor="start" fill="#253747" font-weight="normal">+ iniciarSesion(clave: String): Sesion</text><text x="814" y="332" font-size="17" text-anchor="start" fill="#253747" font-weight="normal">+ asignarRol(rol: Rol): void</text><text x="814" y="360" font-size="17" text-anchor="start" fill="#253747" font-weight="normal">+ desactivar(): void</text><path d="M1525,110 L2015,110 L2015,348 L1525,348 Z" fill="#ffffff" stroke="#546778" stroke-width="2"/><path d="M1525,154 L2015,154" fill="none" stroke="#546778" stroke-width="2"/><text x="1770.0" y="140" font-size="20" text-anchor="middle" fill="#253747" font-weight="bold">Habitacion</text><text x="1539" y="182" font-size="17" text-anchor="start" fill="#253747" font-weight="normal">- id: int</text><text x="1539" y="210" font-size="17" text-anchor="start" fill="#253747" font-weight="normal">- numero: String</text><text x="1539" y="238" font-size="17" text-anchor="start" fill="#253747" font-weight="normal">- capacidad: int</text><text x="1539" y="266" font-size="17" text-anchor="start" fill="#253747" font-weight="normal">- orientacion: String</text><path d="M1525,277 L2015,277" fill="none" stroke="#546778" stroke-width="2"/><text x="1539" y="304" font-size="17" text-anchor="start" fill="#253747" font-weight="normal">+ disponible(entrada, salida): bool</text><text x="1539" y="332" font-size="17" text-anchor="start" fill="#253747" font-weight="normal">+ actualizarDatos(): void</text><path d="M75,690 L565,690 L565,928 L75,928 Z" fill="#ffffff" stroke="#546778" stroke-width="2"/><path d="M75,734 L565,734" fill="none" stroke="#546778" stroke-width="2"/><text x="320.0" y="720" font-size="20" text-anchor="middle" fill="#253747" font-weight="bold">Huesped</text><text x="89" y="762" font-size="17" text-anchor="start" fill="#253747" font-weight="normal">- id: int</text><text x="89" y="790" font-size="17" text-anchor="start" fill="#253747" font-weight="normal">- identificacion: String</text><text x="89" y="818" font-size="17" text-anchor="start" fill="#253747" font-weight="normal">- nombres: String</text><text x="89" y="846" font-size="17" text-anchor="start" fill="#253747" font-weight="normal">- apellidos: String</text><path d="M75,857 L565,857" fill="none" stroke="#546778" stroke-width="2"/><text x="89" y="884" font-size="17" text-anchor="start" fill="#253747" font-weight="normal">+ registrar(): void</text><text x="89" y="912" font-size="17" text-anchor="start" fill="#253747" font-weight="normal">+ consultarHistorial(): List&lt;Estadia&gt;</text><path d="M800,690 L1290,690 L1290,984 L800,984 Z" fill="#ffffff" stroke="#546778" stroke-width="2"/><path d="M800,734 L1290,734" fill="none" stroke="#546778" stroke-width="2"/><text x="1045.0" y="720" font-size="20" text-anchor="middle" fill="#253747" font-weight="bold">Reserva</text><text x="814" y="762" font-size="17" text-anchor="start" fill="#253747" font-weight="normal">- id: int</text><text x="814" y="790" font-size="17" text-anchor="start" fill="#253747" font-weight="normal">- entrada: Date</text><text x="814" y="818" font-size="17" text-anchor="start" fill="#253747" font-weight="normal">- salida: Date</text><text x="814" y="846" font-size="17" text-anchor="start" fill="#253747" font-weight="normal">- cantidadPasajeros: int</text><text x="814" y="874" font-size="17" text-anchor="start" fill="#253747" font-weight="normal">- estado: EstadoReserva</text><path d="M800,885 L1290,885" fill="none" stroke="#546778" stroke-width="2"/><text x="814" y="912" font-size="17" text-anchor="start" fill="#253747" font-weight="normal">+ registrar(): void</text><text x="814" y="940" font-size="17" text-anchor="start" fill="#253747" font-weight="normal">+ modificar(): void</text><text x="814" y="968" font-size="17" text-anchor="start" fill="#253747" font-weight="normal">+ cancelar(): void</text><path d="M1525,690 L2015,690 L2015,1012 L1525,1012 Z" fill="#ffffff" stroke="#546778" stroke-width="2"/><path d="M1525,734 L2015,734" fill="none" stroke="#546778" stroke-width="2"/><text x="1770.0" y="720" font-size="20" text-anchor="middle" fill="#253747" font-weight="bold">Estadia</text><text x="1539" y="762" font-size="17" text-anchor="start" fill="#253747" font-weight="normal">- id: int</text><text x="1539" y="790" font-size="17" text-anchor="start" fill="#253747" font-weight="normal">- entrada: Date</text><text x="1539" y="818" font-size="17" text-anchor="start" fill="#253747" font-weight="normal">- salidaPrevista: Date</text><text x="1539" y="846" font-size="17" text-anchor="start" fill="#253747" font-weight="normal">- salidaReal: Date [0..1]</text><text x="1539" y="874" font-size="17" text-anchor="start" fill="#253747" font-weight="normal">- estado: EstadoEstadia</text><text x="1539" y="902" font-size="17" text-anchor="start" fill="#253747" font-weight="normal">- nochesCobradas: int [0..1]</text><path d="M1525,913 L2015,913" fill="none" stroke="#546778" stroke-width="2"/><text x="1539" y="940" font-size="17" text-anchor="start" fill="#253747" font-weight="normal">+ registrarCheckIn(): void</text><text x="1539" y="968" font-size="17" text-anchor="start" fill="#253747" font-weight="normal">+ calcularCuenta(): Dinero</text><text x="1539" y="996" font-size="17" text-anchor="start" fill="#253747" font-weight="normal">+ registrarCheckOut(): void</text><path d="M800,1280 L1290,1280 L1290,1434 L800,1434 Z" fill="#ffffff" stroke="#546778" stroke-width="2"/><path d="M800,1324 L1290,1324" fill="none" stroke="#546778" stroke-width="2"/><text x="1045.0" y="1310" font-size="20" text-anchor="middle" fill="#253747" font-weight="bold">EstadiaHuesped</text><text x="814" y="1352" font-size="17" text-anchor="start" fill="#253747" font-weight="normal">- tarifaCLP: Dinero [0..1]</text><text x="814" y="1380" font-size="17" text-anchor="start" fill="#253747" font-weight="normal">- costoCLP: Dinero [0..1]</text><path d="M800,1391 L1290,1391" fill="none" stroke="#546778" stroke-width="2"/><text x="814" y="1418" font-size="17" text-anchor="start" fill="#253747" font-weight="normal">+ calcularCosto(regla): Dinero</text></g></svg>