<svg xmlns="http://www.w3.org/2000/svg" width="1800" height="1530" viewBox="0 0 1800 1530"><rect width="100%" height="100%" fill="white"/><g font-family="Arial,sans-serif"><text x="900.0" y="44" font-size="27" text-anchor="middle" fill="#163b50" font-weight="bold">Modificar o cancelar reserva · CU11 / CU12</text><path d="M750.0,160 L750.0,215" fill="none" stroke="#30363b" stroke-width="4"/><path d="M744.0,202.0 L750.0,215 L756.0,202.0" fill="none" stroke="#30363b" stroke-width="4"/><path d="M750.0,305 L750.0,360" fill="none" stroke="#30363b" stroke-width="4"/><path d="M744.0,347.0 L750.0,360 L756.0,347.0" fill="none" stroke="#30363b" stroke-width="4"/><path d="M750.0,450 L750.0,530" fill="none" stroke="#30363b" stroke-width="4"/><path d="M744.0,517.0 L750.0,530 L756.0,517.0" fill="none" stroke="#30363b" stroke-width="4"/><rect x="726.0" y="454.0" width="48" height="34" rx="5" fill="#ffffff" stroke="none"/><text x="750.0" y="477.0" font-size="20" text-anchor="middle" fill="#163b50" font-weight="bold">Sí</text><path d="M320.0,820 L320.0,885" fill="none" stroke="#30363b" stroke-width="4"/><path d="M314.0,872.0 L320.0,885 L326.0,872.0" fill="none" stroke="#30363b" stroke-width="4"/><path d="M320.0,975 L320.0,1040" fill="none" stroke="#30363b" stroke-width="4"/><path d="M314.0,1027.0 L320.0,1040 L326.0,1027.0" fill="none" stroke="#30363b" stroke-width="4"/><path d="M320.0,1130 L320.0,1200" fill="none" stroke="#30363b" stroke-width="4"/><path d="M314.0,1187.0 L320.0,1200 L326.0,1187.0" fill="none" stroke="#30363b" stroke-width="4"/><rect x="296.0" y="1129.0" width="48" height="34" rx="5" fill="#ffffff" stroke="none"/><text x="320.0" y="1152.0" font-size="20" text-anchor="middle" fill="#163b50" font-weight="bold">Sí</text><path d="M320.0,1290 L320.0,1360" fill="none" stroke="#30363b" stroke-width="4"/><path d="M314.0,1347.0 L320.0,1360 L326.0,1347.0" fill="none" stroke="#30363b" stroke-width="4"/><path d="M1250.0,450 L1250.0,500" fill="none" stroke="#30363b" stroke-width="4"/><path d="M1244.0,487.0 L1250.0,500 L1256.0,487.0" fill="none" stroke="#30363b" stroke-width="4"/><path d="M1150.0,820 L1150.0,930" fill="none" stroke="#30363b" stroke-width="4"/><path d="M1144.0,917.0 L1150.0,930 L1156.0,917.0" fill="none" stroke="#30363b" stroke-width="4"/><rect x="1126.0" y="839.0" width="48" height="34" rx="5" fill="#ffffff" stroke="none"/><text x="1150.0" y="862.0" font-size="20" text-anchor="middle" fill="#163b50" font-weight="bold">Sí</text><path d="M1150.0,1020 L1150.0,1090" fill="none" stroke="#30363b" stroke-width="4"/><path d="M1144.0,1077.0 L1150.0,1090 L1156.0,1077.0" fill="none" stroke="#30363b" stroke-width="4"/><path d="M950,405.0 L1050,405.0" fill="none" stroke="#30363b" stroke-width="4"/><path d="M1037.0,411.0 L1050,405.0 L1037.0,399.0" fill="none" stroke="#30363b" stroke-width="4"/><rect x="976.0" y="369.0" width="48" height="34" rx="5" fill="#ffffff" stroke="none"/><text x="1000.0" y="392.0" font-size="20" text-anchor="middle" fill="#163b50" font-weight="bold">No</text><path d="M750.0,620 L320,650 L320.0,730" fill="none" stroke="#30363b" stroke-width="4"/><path d="M314.0,717.0 L320.0,730 L326.0,717.0" fill="none" stroke="#30363b" stroke-width="4"/><rect x="284.2" y="627" width="131.6" height="34" rx="5" fill="#ffffff" stroke="none"/><text x="350" y="650" font-size="20" text-anchor="middle" fill="#163b50" font-weight="bold">Modificar</text><path d="M750.0,620 L1150,650 L1150.0,730" fill="none" stroke="#30363b" stroke-width="4"/><path d="M1144.0,717.0 L1150.0,730 L1156.0,717.0" fill="none" stroke="#30363b" stroke-width="4"/><rect x="1060.4" y="627" width="119.2" height="34" rx="5" fill="#ffffff" stroke="none"/><text x="1120" y="650" font-size="20" text-anchor="middle" fill="#163b50" font-weight="bold">Cancelar</text><path d="M520,1085.0 L520,1085.0" fill="none" stroke="#30363b" stroke-width="4"/><path d="M520.0,1085.0 L520,1085.0 L520.0,1085.0" fill="none" stroke="#30363b" stroke-width="4"/><rect x="496.0" y="1049.0" width="48" height="34" rx="5" fill="#ffffff" stroke="none"/><text x="520.0" y="1072.0" font-size="20" text-anchor="middle" fill="#163b50" font-weight="bold">No</text><path d="M1350,775.0 L1400,775 L1600,775 L1600.0,850" fill="none" stroke="#30363b" stroke-width="4"/><path d="M1594.0,837.0 L1600.0,850 L1606.0,837.0" fill="none" stroke="#30363b" stroke-width="4"/><rect x="1391.0" y="732" width="48" height="34" rx="5" fill="#ffffff" stroke="none"/><text x="1415" y="755" font-size="20" text-anchor="middle" fill="#163b50" font-weight="bold">No</text><ellipse cx="750.0" cy="115.0" rx="200.0" ry="45.0" fill="#ffffff" stroke="#ff7474" stroke-width="4"/><text x="750.0" y="122.0" font-size="22" text-anchor="middle" fill="#253747" font-weight="normal">Inicio</text><path d="M575,215 L950,215 L925,305 L550,305 Z" fill="#ffffff" stroke="#20aaa9" stroke-width="4"/><text x="750.0" y="267.0" font-size="22" text-anchor="middle" fill="#253747" font-weight="normal">Seleccionar reserva</text><path d="M750.0,360 L950,405.0 L750.0,450 L550,405.0 Z" fill="#ffffff" stroke="#30363b" stroke-width="4"/><text x="750.0" y="412.0" font-size="20" text-anchor="middle" fill="#253747" font-weight="normal">¿Reserva REGISTRADA?</text><path d="M750.0,530 L950,575.0 L750.0,620 L550,575.0 Z" fill="#ffffff" stroke="#30363b" stroke-width="4"/><text x="750.0" y="582.0" font-size="20" text-anchor="middle" fill="#253747" font-weight="normal">¿Modificar o cancelar?</text><path d="M1050,360 L1450,360 L1450,450 L1050,450 Z" fill="#ffffff" stroke="#30363b" stroke-width="4"/><text x="1250.0" y="399.5" font-size="22" text-anchor="middle" fill="#253747" font-weight="normal">Informar que la reserva</text><text x="1250.0" y="424.5" font-size="22" text-anchor="middle" fill="#253747" font-weight="normal">no admite cambios</text><ellipse cx="1250.0" cy="545.0" rx="200.0" ry="45.0" fill="#ffffff" stroke="#ff7474" stroke-width="4"/><text x="1250.0" y="552.0" font-size="22" text-anchor="middle" fill="#253747" font-weight="normal">Fin sin cambios</text><path d="M145,730 L520,730 L495,820 L120,820 Z" fill="#ffffff" stroke="#20aaa9" stroke-width="4"/><text x="320.0" y="769.5" font-size="22" text-anchor="middle" fill="#253747" font-weight="normal">Modificar fechas,</text><text x="320.0" y="794.5" font-size="22" text-anchor="middle" fill="#253747" font-weight="normal">habitación o cantidad</text><path d="M120,885 L520,885 L520,975 L120,975 Z" fill="#ffffff" stroke="#30363b" stroke-width="4"/><text x="320.0" y="937.0" font-size="22" text-anchor="middle" fill="#253747" font-weight="normal">Validar datos y disponibilidad</text><path d="M320.0,1040 L520,1085.0 L320.0,1130 L120,1085.0 Z" fill="#ffffff" stroke="#30363b" stroke-width="4"/><text x="320.0" y="1092.0" font-size="20" text-anchor="middle" fill="#253747" font-weight="normal">¿Cambio válido?</text><path d="M120,1200 L520,1200 L520,1290 L120,1290 Z" fill="#ffffff" stroke="#30363b" stroke-width="4"/><text x="320.0" y="1252.0" font-size="22" text-anchor="middle" fill="#253747" font-weight="normal">Guardar cambios</text><ellipse cx="320.0" cy="1405.0" rx="200.0" ry="45.0" fill="#ffffff" stroke="#ff7474" stroke-width="4"/><text x="320.0" y="1412.0" font-size="22" text-anchor="middle" fill="#253747" font-weight="normal">Fin · reserva modificada</text><ellipse cx="720.0" cy="1085.0" rx="200.0" ry="45.0" fill="#ffffff" stroke="#ff7474" stroke-width="4"/><text x="720.0" y="1092.0" font-size="22" text-anchor="middle" fill="#253747" font-weight="normal">Fin sin cambios</text><path d="M1150.0,730 L1350,775.0 L1150.0,820 L950,775.0 Z" fill="#ffffff" stroke="#30363b" stroke-width="4"/><text x="1150.0" y="782.0" font-size="20" text-anchor="middle" fill="#253747" font-weight="normal">¿Confirma la cancelación?</text><path d="M950,930 L1350,930 L1350,1020 L950,1020 Z" fill="#ffffff" stroke="#30363b" stroke-width="4"/><text x="1150.0" y="969.5" font-size="22" text-anchor="middle" fill="#253747" font-weight="normal">Marcar CANCELADA y</text><text x="1150.0" y="994.5" font-size="22" text-anchor="middle" fill="#253747" font-weight="normal">liberar disponibilidad</text><ellipse cx="1150.0" cy="1135.0" rx="200.0" ry="45.0" fill="#ffffff" stroke="#ff7474" stroke-width="4"/><text x="1150.0" y="1142.0" font-size="22" text-anchor="middle" fill="#253747" font-weight="normal">Fin · reserva cancelada</text><ellipse cx="1600.0" cy="890.0" rx="150.0" ry="40.0" fill="#ffffff" stroke="#ff7474" stroke-width="4"/><text x="1600.0" y="897.0" font-size="22" text-anchor="middle" fill="#253747" font-weight="normal">Fin sin cambios</text></g></svg>