<svg xmlns="http://www.w3.org/2000/svg" width="1800" height="1220" viewBox="0 0 1800 1220"><rect width="100%" height="100%" fill="white"/><g font-family="Arial,sans-serif"><text x="900.0" y="44" font-size="27" text-anchor="middle" fill="#163b50" font-weight="bold">Mockup completo · Vista general</text><rect x="35" y="70" width="1730" height="80" rx="8" fill="#163b50" stroke="#30363b" stroke-width="4"/><text x="900.0" y="117.0" font-size="22" text-anchor="middle" fill="#ffffff" font-weight="bold">Hotel Duerme Bien · Sistema de pasajeros</text><path d="M35,180 L315,180 L315,1140 L35,1140 Z" fill="#d9eaf1" stroke="#30363b" stroke-width="4"/><text x="175.0" y="554.5" font-size="22" text-anchor="middle" fill="#253747" font-weight="normal">MENÚ</text><text x="175.0" y="579.5" font-size="22" text-anchor="middle" fill="#253747" font-weight="normal"></text><text x="175.0" y="604.5" font-size="22" text-anchor="middle" fill="#253747" font-weight="normal">Disponibilidad</text><text x="175.0" y="629.5" font-size="22" text-anchor="middle" fill="#253747" font-weight="normal">Habitaciones</text><text x="175.0" y="654.5" font-size="22" text-anchor="middle" fill="#253747" font-weight="normal">Huéspedes</text><text x="175.0" y="679.5" font-size="22" text-anchor="middle" fill="#253747" font-weight="normal">Reservas</text><text x="175.0" y="704.5" font-size="22" text-anchor="middle" fill="#253747" font-weight="normal">Check-in</text><text x="175.0" y="729.5" font-size="22" text-anchor="middle" fill="#253747" font-weight="normal">Check-out</text><text x="175.0" y="754.5" font-size="22" text-anchor="middle" fill="#253747" font-weight="normal">Informes</text><text x="175.0" y="779.5" font-size="22" text-anchor="middle" fill="#253747" font-weight="normal">Usuarios</text><rect x="350" y="180" width="310" height="120" rx="8" fill="#d9eaf1" stroke="#30363b" stroke-width="4"/><text x="505.0" y="234.5" font-size="22" text-anchor="middle" fill="#253747" font-weight="bold">Disponibles</text><text x="505.0" y="259.5" font-size="22" text-anchor="middle" fill="#253747" font-weight="bold">8</text><rect x="695" y="180" width="310" height="120" rx="8" fill="#d9eaf1" stroke="#30363b" stroke-width="4"/><text x="850.0" y="234.5" font-size="22" text-anchor="middle" fill="#253747" font-weight="bold">Ocupadas</text><text x="850.0" y="259.5" font-size="22" text-anchor="middle" fill="#253747" font-weight="bold">12</text><rect x="1040" y="180" width="310" height="120" rx="8" fill="#d9eaf1" stroke="#30363b" stroke-width="4"/><text x="1195.0" y="234.5" font-size="22" text-anchor="middle" fill="#253747" font-weight="bold">Reservas</text><text x="1195.0" y="259.5" font-size="22" text-anchor="middle" fill="#253747" font-weight="bold">5</text><rect x="1385" y="180" width="310" height="120" rx="8" fill="#d9eaf1" stroke="#30363b" stroke-width="4"/><text x="1540.0" y="234.5" font-size="22" text-anchor="middle" fill="#253747" font-weight="bold">Estadías activas</text><text x="1540.0" y="259.5" font-size="22" text-anchor="middle" fill="#253747" font-weight="bold">10</text><text x="354" y="368.5" font-size="17" text-anchor="start" fill="#253747" font-weight="normal">Registrar reserva / ingreso</text><rect x="350" y="410" width="420" height="78" rx="8" fill="#ffffff" stroke="#30363b" stroke-width="4"/><text x="365" y="443.5" font-size="22" text-anchor="start" fill="#253747" font-weight="normal">Titular</text><text x="365" y="468.5" font-size="22" text-anchor="start" fill="#253747" font-weight="normal">Ana Ejemplo</text><rect x="810" y="410" width="420" height="78" rx="8" fill="#ffffff" stroke="#30363b" stroke-width="4"/><text x="825" y="443.5" font-size="22" text-anchor="start" fill="#253747" font-weight="normal">Habitación</text><text x="825" y="468.5" font-size="22" text-anchor="start" fill="#253747" font-weight="normal">201 · Capacidad 2</text><rect x="1270" y="410" width="420" height="78" rx="8" fill="#ffffff" stroke="#30363b" stroke-width="4"/><text x="1285" y="443.5" font-size="22" text-anchor="start" fill="#253747" font-weight="normal">Entrada</text><text x="1285" y="468.5" font-size="22" text-anchor="start" fill="#253747" font-weight="normal">01/10/2026</text><rect x="350" y="520" width="420" height="78" rx="8" fill="#ffffff" stroke="#30363b" stroke-width="4"/><text x="365" y="553.5" font-size="22" text-anchor="start" fill="#253747" font-weight="normal">Salida</text><text x="365" y="578.5" font-size="22" text-anchor="start" fill="#253747" font-weight="normal">03/10/2026</text><rect x="810" y="520" width="420" height="78" rx="8" fill="#ffffff" stroke="#30363b" stroke-width="4"/><text x="825" y="553.5" font-size="22" text-anchor="start" fill="#253747" font-weight="normal">Pasajeros</text><text x="825" y="578.5" font-size="22" text-anchor="start" fill="#253747" font-weight="normal">2</text><rect x="1270" y="520" width="420" height="78" rx="8" fill="#ffffff" stroke="#30363b" stroke-width="4"/><text x="1285" y="553.5" font-size="22" text-anchor="start" fill="#253747" font-weight="normal">Estado</text><text x="1285" y="578.5" font-size="22" text-anchor="start" fill="#253747" font-weight="normal">REGISTRADA</text><rect x="350" y="650" width="420" height="65" rx="8" fill="#163b50" stroke="#30363b" stroke-width="4"/><text x="560.0" y="689.5" font-size="22" text-anchor="middle" fill="#ffffff" font-weight="bold">Guardar reserva</text><rect x="810" y="650" width="420" height="65" rx="8" fill="#163b50" stroke="#30363b" stroke-width="4"/><text x="1020.0" y="689.5" font-size="22" text-anchor="middle" fill="#ffffff" font-weight="bold">Confirmar check-in</text><rect x="1270" y="650" width="420" height="65" rx="8" fill="#163b50" stroke="#30363b" stroke-width="4"/><text x="1480.0" y="689.5" font-size="22" text-anchor="middle" fill="#ffffff" font-weight="bold">Calcular check-out</text><path d="M350,760 L1730,760 L1730,990 L350,990 Z" fill="#ffffff" stroke="#30363b" stroke-width="4"/><path d="M350,810 L1730,810" fill="none" stroke="#30363b" stroke-width="4"/><text x="1040.0" y="794" font-size="24" text-anchor="middle" fill="#253747" font-weight="bold">Reservas y estadías</text><text x="368" y="840" font-size="21" text-anchor="start" fill="#253747" font-weight="normal">Reserva | Titular | Habitación | Fechas | Pasajeros | Estado | Acción</text><text x="368" y="874" font-size="21" text-anchor="start" fill="#253747" font-weight="normal">#1 | Ana Ejemplo | 201 | 01/10–03/10 | 2 | REGISTRADA | Modificar / Cancelar</text><text x="368" y="908" font-size="21" text-anchor="start" fill="#253747" font-weight="normal">#2 | Luis Ejemplo | 305 | 02/10–04/10 | 1 | CHECK_IN | Ver detalle</text><rect x="350" y="1020" width="1380" height="78" rx="8" fill="#d9eaf1" stroke="#30363b" stroke-width="4"/><text x="1040.0" y="1066.0" font-size="22" text-anchor="middle" fill="#253747" font-weight="normal">Cuenta seleccionada: 2 pasajeros · 2 noches · Total $40.000 CLP</text></g></svg>