<svg xmlns="http://www.w3.org/2000/svg" width="1700" height="2240" viewBox="0 0 1700 2240"><rect width="100%" height="100%" fill="white"/><g font-family="Arial,sans-serif"><text x="850.0" y="44" font-size="27" text-anchor="middle" fill="#163b50" font-weight="bold">Base de datos · Hotel Duerme Bien</text><path d="M760,181.0 L940,167.5" fill="none" stroke="#546778" stroke-width="2"/><path d="M765.310086325156,171.5764665215541 L766.6563053935055,189.5260540995463" fill="none" stroke="#546778" stroke-width="2"/><path d="M784.2568732130367,170.15545750496304 L785.6030922813861,188.10504508295523" fill="none" stroke="#546778" stroke-width="2"/><path d="M922.0504124220078,168.84621906834943 L940.598319585933,175.47759447910764" fill="none" stroke="#546778" stroke-width="2"/><path d="M922.0504124220078,168.84621906834943 L940,167.5" fill="none" stroke="#546778" stroke-width="2"/><path d="M922.0504124220078,168.84621906834943 L939.401680414067,159.52240552089236" fill="none" stroke="#546778" stroke-width="2"/><ellipse cx="913.0756186330117" cy="169.51932860252413" rx="5.0" ry="5.0" fill="#ffffff" stroke="#546778" stroke-width="2"/><path d="M305.0,714 L305.0,970" fill="none" stroke="#546778" stroke-width="2"/><path d="M314.0,720.0 L296.0,720.0" fill="none" stroke="#546778" stroke-width="2"/><path d="M314.0,739.0 L296.0,739.0" fill="none" stroke="#546778" stroke-width="2"/><path d="M305.0,952.0 L297.0,970.0" fill="none" stroke="#546778" stroke-width="2"/><path d="M305.0,952.0 L305.0,970" fill="none" stroke="#546778" stroke-width="2"/><path d="M305.0,952.0 L313.0,970.0" fill="none" stroke="#546778" stroke-width="2"/><ellipse cx="305.0" cy="943.0" rx="5.0" ry="5.0" fill="#ffffff" stroke="#546778" stroke-width="2"/><path d="M760,526.8 L850,527 L850,1062 L940,1045.6" fill="none" stroke="#546778" stroke-width="2"/><path d="M766.0199851358575,517.8133555225515 L765.9799852346225,535.8133110782717" fill="none" stroke="#546778" stroke-width="2"/><path d="M785.0199382224511,517.8555776405218 L784.9799383212161,535.8555331962419" fill="none" stroke="#546778" stroke-width="2"/><path d="M922.2916022363545,1048.8268635924865 L941.4341615966607,1053.4703990060646" fill="none" stroke="#546778" stroke-width="2"/><path d="M922.2916022363545,1048.8268635924865 L940,1045.6" fill="none" stroke="#546778" stroke-width="2"/><path d="M922.2916022363545,1048.8268635924865 L938.5658384033393,1037.7296009939353" fill="none" stroke="#546778" stroke-width="2"/><ellipse cx="913.4374033545317" cy="1050.4402953887297" rx="5.0" ry="5.0" fill="#ffffff" stroke="#546778" stroke-width="2"/><path d="M940,667.2 L850,667 L850,1032 L760,1031.56" fill="none" stroke="#546778" stroke-width="2"/><path d="M933.9800148641425,676.1866444774485 L934.0200147653775,658.1866889217283" fill="none" stroke="#546778" stroke-width="2"/><path d="M914.9800617775489,676.1444223594782 L915.0200616787839,658.1444668037581" fill="none" stroke="#546778" stroke-width="2"/><path d="M777.9997848927449,1031.6479989483644 L760.0391106437175,1023.5600956032245" fill="none" stroke="#546778" stroke-width="2"/><path d="M777.9997848927449,1031.6479989483644 L760,1031.56" fill="none" stroke="#546778" stroke-width="2"/><path d="M777.9997848927449,1031.6479989483644 L759.9608893562825,1039.5599043967754" fill="none" stroke="#546778" stroke-width="2"/><ellipse cx="786.9996773391173" cy="1031.6919984225467" rx="5.0" ry="5.0" fill="#ffffff" stroke="#546778" stroke-width="2"/><path d="M760,1192.3 L940,1215.7" fill="none" stroke="#546778" stroke-width="2"/><path d="M767.110170776351,1184.1485908254385 L764.7896966317678,1201.9983919376168" fill="none" stroke="#546778" stroke-width="2"/><ellipse cx="786.7747016682674" cy="1195.7807112168748" rx="5.0" ry="5.0" fill="#ffffff" stroke="#546778" stroke-width="2"/><path d="M932.889829223649,1223.8514091745615 L935.2103033682322,1206.0016080623832" fill="none" stroke="#546778" stroke-width="2"/><ellipse cx="913.2252983317326" cy="1212.2192887831252" rx="5.0" ry="5.0" fill="#ffffff" stroke="#546778" stroke-width="2"/><path d="M1150.0,1348 L1150,1550 L1250,1550 L1250,1842 L1200,1842.1" fill="none" stroke="#546778" stroke-width="2"/><path d="M1159.0,1354.0 L1141.0,1354.0" fill="none" stroke="#546778" stroke-width="2"/><path d="M1159.0,1373.0 L1141.0,1373.0" fill="none" stroke="#546778" stroke-width="2"/><path d="M1217.999964000108,1842.0640000719998 L1199.9840000319998,1834.100015999952" fill="none" stroke="#546778" stroke-width="2"/><path d="M1217.999964000108,1842.0640000719998 L1200,1842.1" fill="none" stroke="#546778" stroke-width="2"/><path d="M1217.999964000108,1842.0640000719998 L1200.0159999680002,1850.099984000048" fill="none" stroke="#546778" stroke-width="2"/><path d="M1224.9819500361498,1833.0500180999456 L1225.0179499641501,1851.0499821000535" fill="none" stroke="#546778" stroke-width="2"/><path d="M1640,608.7 L1660,609 L1660,1640 L1025,1640 L1025.0,1690" fill="none" stroke="#546778" stroke-width="2"/><path d="M1646.1343099289472,599.791002205881 L1645.8643402988225,617.7889775475356" fill="none" stroke="#546778" stroke-width="2"/><path d="M1665.1321727895827,600.0759701487905 L1664.862203159458,618.0739454904451" fill="none" stroke="#546778" stroke-width="2"/><path d="M1025.0,1672.0 L1017.0,1690.0" fill="none" stroke="#546778" stroke-width="2"/><path d="M1025.0,1672.0 L1025.0,1690" fill="none" stroke="#546778" stroke-width="2"/><path d="M1025.0,1672.0 L1033.0,1690.0" fill="none" stroke="#546778" stroke-width="2"/><ellipse cx="1025.0" cy="1663.0" rx="5.0" ry="5.0" fill="#ffffff" stroke="#546778" stroke-width="2"/><path d="M60,100 L760,100 L760,262 L60,262 Z" fill="#f7fafc" stroke="#546778" stroke-width="2"/><path d="M60,144 L760,144" fill="none" stroke="#546778" stroke-width="2"/><text x="410.0" y="130" font-size="20" text-anchor="middle" fill="#253747" font-weight="bold">ROL</text><text x="74" y="182" font-size="22" text-anchor="start" fill="#253747" font-weight="normal">PK id_rol: INTEGER</text><text x="74" y="218" font-size="22" text-anchor="start" fill="#253747" font-weight="normal">nombre: VARCHAR(30) NOT NULL UNIQUE</text><path d="M940,100 L1640,100 L1640,370 L940,370 Z" fill="#f7fafc" stroke="#546778" stroke-width="2"/><path d="M940,144 L1640,144" fill="none" stroke="#546778" stroke-width="2"/><text x="1290.0" y="130" font-size="20" text-anchor="middle" fill="#253747" font-weight="bold">USUARIO</text><text x="954" y="182" font-size="22" text-anchor="start" fill="#253747" font-weight="normal">PK id_usuario: INTEGER</text><text x="954" y="218" font-size="22" text-anchor="start" fill="#253747" font-weight="normal">FK id_rol: INTEGER NOT NULL</text><text x="954" y="254" font-size="22" text-anchor="start" fill="#253747" font-weight="normal">nombre_usuario: VARCHAR(50) NOT NULL UNIQUE</text><text x="954" y="290" font-size="22" text-anchor="start" fill="#253747" font-weight="normal">hash_clave: VARCHAR(255) NOT NULL</text><text x="954" y="326" font-size="22" text-anchor="start" fill="#253747" font-weight="normal">activo: BOOLEAN NOT NULL</text><path d="M60,480 L760,480 L760,714 L60,714 Z" fill="#f7fafc" stroke="#546778" stroke-width="2"/><path d="M60,524 L760,524" fill="none" stroke="#546778" stroke-width="2"/><text x="410.0" y="510" font-size="20" text-anchor="middle" fill="#253747" font-weight="bold">HABITACION</text><text x="74" y="562" font-size="22" text-anchor="start" fill="#253747" font-weight="normal">PK id_habitacion: INTEGER</text><text x="74" y="598" font-size="22" text-anchor="start" fill="#253747" font-weight="normal">numero: VARCHAR(20) NOT NULL UNIQUE</text><text x="74" y="634" font-size="22" text-anchor="start" fill="#253747" font-weight="normal">capacidad: INTEGER NOT NULL, mayor que 0</text><text x="74" y="670" font-size="22" text-anchor="start" fill="#253747" font-weight="normal">orientacion: VARCHAR(30) NOT NULL</text><path d="M940,480 L1640,480 L1640,714 L940,714 Z" fill="#f7fafc" stroke="#546778" stroke-width="2"/><path d="M940,524 L1640,524" fill="none" stroke="#546778" stroke-width="2"/><text x="1290.0" y="510" font-size="20" text-anchor="middle" fill="#253747" font-weight="bold">HUESPED</text><text x="954" y="562" font-size="22" text-anchor="start" fill="#253747" font-weight="normal">PK id_huesped: INTEGER</text><text x="954" y="598" font-size="22" text-anchor="start" fill="#253747" font-weight="normal">identificacion: VARCHAR(50) NOT NULL UNIQUE</text><text x="954" y="634" font-size="22" text-anchor="start" fill="#253747" font-weight="normal">nombres: VARCHAR(100) NOT NULL</text><text x="954" y="670" font-size="22" text-anchor="start" fill="#253747" font-weight="normal">apellidos: VARCHAR(100) NOT NULL</text><path d="M60,970 L760,970 L760,1312 L60,1312 Z" fill="#f7fafc" stroke="#546778" stroke-width="2"/><path d="M60,1014 L760,1014" fill="none" stroke="#546778" stroke-width="2"/><text x="410.0" y="1000" font-size="20" text-anchor="middle" fill="#253747" font-weight="bold">RESERVA</text><text x="74" y="1052" font-size="22" text-anchor="start" fill="#253747" font-weight="normal">PK id_reserva: INTEGER</text><text x="74" y="1088" font-size="22" text-anchor="start" fill="#253747" font-weight="normal">FK id_huesped_titular: INTEGER NOT NULL</text><text x="74" y="1124" font-size="22" text-anchor="start" fill="#253747" font-weight="normal">FK id_habitacion: INTEGER NOT NULL</text><text x="74" y="1160" font-size="22" text-anchor="start" fill="#253747" font-weight="normal">fecha_entrada: DATE NOT NULL</text><text x="74" y="1196" font-size="22" text-anchor="start" fill="#253747" font-weight="normal">fecha_salida: DATE NOT NULL, posterior a entrada</text><text x="74" y="1232" font-size="22" text-anchor="start" fill="#253747" font-weight="normal">cantidad_pasajeros: INTEGER NOT NULL, mayor que 0</text><text x="74" y="1268" font-size="22" text-anchor="start" fill="#253747" font-weight="normal">estado: REGISTRADA, CHECK_IN o CANCELADA</text><path d="M940,970 L1640,970 L1640,1348 L940,1348 Z" fill="#f7fafc" stroke="#546778" stroke-width="2"/><path d="M940,1014 L1640,1014" fill="none" stroke="#546778" stroke-width="2"/><text x="1290.0" y="1000" font-size="20" text-anchor="middle" fill="#253747" font-weight="bold">ESTADIA</text><text x="954" y="1052" font-size="22" text-anchor="start" fill="#253747" font-weight="normal">PK id_estadia: INTEGER</text><text x="954" y="1088" font-size="22" text-anchor="start" fill="#253747" font-weight="normal">FK id_habitacion: INTEGER NOT NULL</text><text x="954" y="1124" font-size="22" text-anchor="start" fill="#253747" font-weight="normal">FK id_reserva: INTEGER NULL UNIQUE</text><text x="954" y="1160" font-size="22" text-anchor="start" fill="#253747" font-weight="normal">fecha_entrada: DATE NOT NULL</text><text x="954" y="1196" font-size="22" text-anchor="start" fill="#253747" font-weight="normal">fecha_salida_prevista: DATE NOT NULL, posterior a entrada</text><text x="954" y="1232" font-size="22" text-anchor="start" fill="#253747" font-weight="normal">fecha_salida_real: DATE NULL</text><text x="954" y="1268" font-size="22" text-anchor="start" fill="#253747" font-weight="normal">estado: ACTIVA o FINALIZADA</text><text x="954" y="1304" font-size="22" text-anchor="start" fill="#253747" font-weight="normal">noches_cobradas: INTEGER NULL, mayor que 0</text><path d="M500,1690 L1200,1690 L1200,1924 L500,1924 Z" fill="#f7fafc" stroke="#546778" stroke-width="2"/><path d="M500,1734 L1200,1734" fill="none" stroke="#546778" stroke-width="2"/><text x="850.0" y="1720" font-size="20" text-anchor="middle" fill="#253747" font-weight="bold">ESTADIA_HUESPED</text><text x="514" y="1772" font-size="22" text-anchor="start" fill="#253747" font-weight="normal">PK/FK id_estadia: INTEGER NOT NULL</text><text x="514" y="1808" font-size="22" text-anchor="start" fill="#253747" font-weight="normal">PK/FK id_huesped: INTEGER NOT NULL</text><text x="514" y="1844" font-size="22" text-anchor="start" fill="#253747" font-weight="normal">tarifa_clp: INTEGER NULL, mayor o igual a 0</text><text x="514" y="1880" font-size="22" text-anchor="start" fill="#253747" font-weight="normal">costo_clp: INTEGER NULL, mayor o igual a 0</text><text x="850" y="2050" font-size="23" text-anchor="middle" fill="#253747" font-weight="normal">PK: clave primaria   ·   FK: clave foránea   ·   UNIQUE: valor único</text><text x="850" y="2090" font-size="23" text-anchor="middle" fill="#253747" font-weight="normal">NULL: dato opcional o pendiente   ·   NOT NULL: dato obligatorio</text><text x="850" y="2130" font-size="21" text-anchor="middle" fill="#253747" font-weight="normal">Una estadía puede iniciar sin reserva; cada pasajero tiene su costo individual.</text></g></svg>